%TF.GenerationSoftware,KiCad,Pcbnew,(5.1.6-0-10_14)*%
%TF.CreationDate,2020-11-30T17:01:27+08:00*%
%TF.ProjectId,Quadrotor,51756164-726f-4746-9f72-2e6b69636164,rev?*%
%TF.SameCoordinates,Original*%
%TF.FileFunction,Copper,L2,Bot*%
%TF.FilePolarity,Positive*%
%FSLAX46Y46*%
G04 Gerber Fmt 4.6, Leading zero omitted, Abs format (unit mm)*
G04 Created by KiCad (PCBNEW (5.1.6-0-10_14)) date 2020-11-30 17:01:27*
%MOMM*%
%LPD*%
G01*
G04 APERTURE LIST*
%TA.AperFunction,SMDPad,CuDef*%
%ADD10R,3.000000X0.400000*%
%TD*%
%TA.AperFunction,ComponentPad*%
%ADD11O,1.350000X1.350000*%
%TD*%
%TA.AperFunction,ComponentPad*%
%ADD12R,1.350000X1.350000*%
%TD*%
%TA.AperFunction,ComponentPad*%
%ADD13O,1.000000X1.600000*%
%TD*%
%TA.AperFunction,ComponentPad*%
%ADD14O,1.000000X2.100000*%
%TD*%
%TA.AperFunction,ViaPad*%
%ADD15C,0.800000*%
%TD*%
%TA.AperFunction,Conductor*%
%ADD16C,0.200000*%
%TD*%
%TA.AperFunction,Conductor*%
%ADD17C,0.250000*%
%TD*%
%TA.AperFunction,Conductor*%
%ADD18C,0.254000*%
%TD*%
G04 APERTURE END LIST*
D10*
%TO.P,J13,30*%
%TO.N,Earth*%
X108500000Y-103150000D03*
%TO.P,J13,29*%
X108500000Y-103850000D03*
%TO.P,J13,28*%
%TO.N,Net-(C28-Pad2)*%
X108500000Y-104550000D03*
%TO.P,J13,27*%
%TO.N,Net-(C29-Pad2)*%
X108500000Y-105250000D03*
%TO.P,J13,26*%
%TO.N,Net-(J13-Pad26)*%
X108500000Y-105950000D03*
%TO.P,J13,25*%
%TO.N,Earth*%
X108500000Y-106650000D03*
%TO.P,J13,24*%
X108500000Y-107350000D03*
%TO.P,J13,23*%
X108500000Y-108050000D03*
%TO.P,J13,22*%
X108500000Y-108750000D03*
%TO.P,J13,21*%
X108500000Y-109450000D03*
%TO.P,J13,20*%
%TO.N,Net-(J13-Pad20)*%
X108500000Y-110150000D03*
%TO.P,J13,19*%
%TO.N,/OLED_MOSI*%
X108500000Y-110850000D03*
%TO.P,J13,18*%
%TO.N,/OLED_SCK*%
X108500000Y-111550000D03*
%TO.P,J13,17*%
%TO.N,Earth*%
X108500000Y-112250000D03*
%TO.P,J13,16*%
X108500000Y-112950000D03*
%TO.P,J13,15*%
%TO.N,/OLED_DC*%
X108500000Y-113650000D03*
%TO.P,J13,14*%
%TO.N,/OLED_RES*%
X108500000Y-114350000D03*
%TO.P,J13,13*%
%TO.N,/OLED_CS*%
X108500000Y-115050000D03*
%TO.P,J13,12*%
%TO.N,N/C*%
X108500000Y-115750000D03*
%TO.P,J13,11*%
%TO.N,Net-(J13-Pad11)*%
X108500000Y-116450000D03*
%TO.P,J13,10*%
%TO.N,Net-(J13-Pad10)*%
X108500000Y-117150000D03*
%TO.P,J13,9*%
%TO.N,/+3.3V*%
X108500000Y-117850000D03*
%TO.P,J13,8*%
%TO.N,Earth*%
X108500000Y-118550000D03*
%TO.P,J13,7*%
%TO.N,N/C*%
X108500000Y-119250000D03*
%TO.P,J13,6*%
%TO.N,/+3.3V*%
X108500000Y-119950000D03*
%TO.P,J13,5*%
%TO.N,Net-(C27-Pad1)*%
X108500000Y-120650000D03*
%TO.P,J13,4*%
%TO.N,Net-(C27-Pad2)*%
X108500000Y-121350000D03*
%TO.P,J13,3*%
%TO.N,Net-(C26-Pad1)*%
X108500000Y-122050000D03*
%TO.P,J13,2*%
%TO.N,Net-(C26-Pad2)*%
X108500000Y-122750000D03*
%TO.P,J13,1*%
%TO.N,Earth*%
X108500000Y-123450000D03*
%TD*%
D11*
%TO.P,J4,2*%
%TO.N,Earth*%
X120100000Y-146500000D03*
D12*
%TO.P,J4,1*%
%TO.N,+BATT*%
X120100000Y-148500000D03*
%TD*%
%TO.P,R14,2*%
%TO.N,Net-(J13-Pad11)*%
%TA.AperFunction,SMDPad,CuDef*%
G36*
G01*
X113575000Y-117062500D02*
X113575000Y-117537500D01*
G75*
G02*
X113337500Y-117775000I-237500J0D01*
G01*
X112762500Y-117775000D01*
G75*
G02*
X112525000Y-117537500I0J237500D01*
G01*
X112525000Y-117062500D01*
G75*
G02*
X112762500Y-116825000I237500J0D01*
G01*
X113337500Y-116825000D01*
G75*
G02*
X113575000Y-117062500I0J-237500D01*
G01*
G37*
%TD.AperFunction*%
%TO.P,R14,1*%
%TO.N,Earth*%
%TA.AperFunction,SMDPad,CuDef*%
G36*
G01*
X115325000Y-117062500D02*
X115325000Y-117537500D01*
G75*
G02*
X115087500Y-117775000I-237500J0D01*
G01*
X114512500Y-117775000D01*
G75*
G02*
X114275000Y-117537500I0J237500D01*
G01*
X114275000Y-117062500D01*
G75*
G02*
X114512500Y-116825000I237500J0D01*
G01*
X115087500Y-116825000D01*
G75*
G02*
X115325000Y-117062500I0J-237500D01*
G01*
G37*
%TD.AperFunction*%
%TD*%
%TO.P,R13,2*%
%TO.N,Net-(J13-Pad10)*%
%TA.AperFunction,SMDPad,CuDef*%
G36*
G01*
X113575000Y-118812500D02*
X113575000Y-119287500D01*
G75*
G02*
X113337500Y-119525000I-237500J0D01*
G01*
X112762500Y-119525000D01*
G75*
G02*
X112525000Y-119287500I0J237500D01*
G01*
X112525000Y-118812500D01*
G75*
G02*
X112762500Y-118575000I237500J0D01*
G01*
X113337500Y-118575000D01*
G75*
G02*
X113575000Y-118812500I0J-237500D01*
G01*
G37*
%TD.AperFunction*%
%TO.P,R13,1*%
%TO.N,Earth*%
%TA.AperFunction,SMDPad,CuDef*%
G36*
G01*
X115325000Y-118812500D02*
X115325000Y-119287500D01*
G75*
G02*
X115087500Y-119525000I-237500J0D01*
G01*
X114512500Y-119525000D01*
G75*
G02*
X114275000Y-119287500I0J237500D01*
G01*
X114275000Y-118812500D01*
G75*
G02*
X114512500Y-118575000I237500J0D01*
G01*
X115087500Y-118575000D01*
G75*
G02*
X115325000Y-118812500I0J-237500D01*
G01*
G37*
%TD.AperFunction*%
%TD*%
%TO.P,R12,2*%
%TO.N,Net-(J13-Pad26)*%
%TA.AperFunction,SMDPad,CuDef*%
G36*
G01*
X113575000Y-107112500D02*
X113575000Y-107587500D01*
G75*
G02*
X113337500Y-107825000I-237500J0D01*
G01*
X112762500Y-107825000D01*
G75*
G02*
X112525000Y-107587500I0J237500D01*
G01*
X112525000Y-107112500D01*
G75*
G02*
X112762500Y-106875000I237500J0D01*
G01*
X113337500Y-106875000D01*
G75*
G02*
X113575000Y-107112500I0J-237500D01*
G01*
G37*
%TD.AperFunction*%
%TO.P,R12,1*%
%TO.N,Earth*%
%TA.AperFunction,SMDPad,CuDef*%
G36*
G01*
X115325000Y-107112500D02*
X115325000Y-107587500D01*
G75*
G02*
X115087500Y-107825000I-237500J0D01*
G01*
X114512500Y-107825000D01*
G75*
G02*
X114275000Y-107587500I0J237500D01*
G01*
X114275000Y-107112500D01*
G75*
G02*
X114512500Y-106875000I237500J0D01*
G01*
X115087500Y-106875000D01*
G75*
G02*
X115325000Y-107112500I0J-237500D01*
G01*
G37*
%TD.AperFunction*%
%TD*%
%TO.P,R11,2*%
%TO.N,Net-(J13-Pad20)*%
%TA.AperFunction,SMDPad,CuDef*%
G36*
G01*
X114275000Y-111087500D02*
X114275000Y-110612500D01*
G75*
G02*
X114512500Y-110375000I237500J0D01*
G01*
X115087500Y-110375000D01*
G75*
G02*
X115325000Y-110612500I0J-237500D01*
G01*
X115325000Y-111087500D01*
G75*
G02*
X115087500Y-111325000I-237500J0D01*
G01*
X114512500Y-111325000D01*
G75*
G02*
X114275000Y-111087500I0J237500D01*
G01*
G37*
%TD.AperFunction*%
%TO.P,R11,1*%
%TO.N,/OLED_MOSI*%
%TA.AperFunction,SMDPad,CuDef*%
G36*
G01*
X112525000Y-111087500D02*
X112525000Y-110612500D01*
G75*
G02*
X112762500Y-110375000I237500J0D01*
G01*
X113337500Y-110375000D01*
G75*
G02*
X113575000Y-110612500I0J-237500D01*
G01*
X113575000Y-111087500D01*
G75*
G02*
X113337500Y-111325000I-237500J0D01*
G01*
X112762500Y-111325000D01*
G75*
G02*
X112525000Y-111087500I0J237500D01*
G01*
G37*
%TD.AperFunction*%
%TD*%
D11*
%TO.P,J10,4*%
%TO.N,Earth*%
X138550000Y-138450000D03*
%TO.P,J10,3*%
%TO.N,/PWM4*%
X138550000Y-136450000D03*
%TO.P,J10,2*%
%TO.N,/PWM3*%
X138550000Y-134450000D03*
D12*
%TO.P,J10,1*%
%TO.N,+5V*%
X138550000Y-132450000D03*
%TD*%
D11*
%TO.P,J9,4*%
%TO.N,Earth*%
X138550000Y-113550000D03*
%TO.P,J9,3*%
%TO.N,/PWM2*%
X138550000Y-115550000D03*
%TO.P,J9,2*%
%TO.N,/PWM1*%
X138550000Y-117550000D03*
D12*
%TO.P,J9,1*%
%TO.N,+5V*%
X138550000Y-119550000D03*
%TD*%
D11*
%TO.P,J8,4*%
%TO.N,/+3.3V*%
X138550000Y-129000000D03*
%TO.P,J8,3*%
%TO.N,Earth*%
X138550000Y-127000000D03*
%TO.P,J8,2*%
%TO.N,/VL53_SCL*%
X138550000Y-125000000D03*
D12*
%TO.P,J8,1*%
%TO.N,/VL53_SDA*%
X138550000Y-123000000D03*
%TD*%
D11*
%TO.P,J7,2*%
%TO.N,Earth*%
X137300000Y-146500000D03*
D12*
%TO.P,J7,1*%
%TO.N,/LED1*%
X137300000Y-148500000D03*
%TD*%
D11*
%TO.P,J6,2*%
%TO.N,+BATT*%
X133860000Y-148500000D03*
D12*
%TO.P,J6,1*%
%TO.N,Net-(D6-Pad2)*%
X133860000Y-146500000D03*
%TD*%
D11*
%TO.P,J5,2*%
%TO.N,+BATT*%
X126980000Y-148500000D03*
D12*
%TO.P,J5,1*%
%TO.N,Net-(D5-Pad2)*%
X126980000Y-146500000D03*
%TD*%
D11*
%TO.P,J3,2*%
%TO.N,+BATT*%
X130420000Y-148500000D03*
D12*
%TO.P,J3,1*%
%TO.N,Net-(D4-Pad2)*%
X130420000Y-146500000D03*
%TD*%
D11*
%TO.P,J2,2*%
%TO.N,+BATT*%
X123540000Y-148500000D03*
D12*
%TO.P,J2,1*%
%TO.N,Net-(D3-Pad2)*%
X123540000Y-146500000D03*
%TD*%
D13*
%TO.P,J1,S1*%
%TO.N,Earth*%
X118580000Y-102775000D03*
X127220000Y-102775000D03*
D14*
X118580000Y-106955000D03*
X127220000Y-106955000D03*
%TD*%
%TO.P,C29,2*%
%TO.N,Net-(C29-Pad2)*%
%TA.AperFunction,SMDPad,CuDef*%
G36*
G01*
X113575000Y-105012500D02*
X113575000Y-105487500D01*
G75*
G02*
X113337500Y-105725000I-237500J0D01*
G01*
X112762500Y-105725000D01*
G75*
G02*
X112525000Y-105487500I0J237500D01*
G01*
X112525000Y-105012500D01*
G75*
G02*
X112762500Y-104775000I237500J0D01*
G01*
X113337500Y-104775000D01*
G75*
G02*
X113575000Y-105012500I0J-237500D01*
G01*
G37*
%TD.AperFunction*%
%TO.P,C29,1*%
%TO.N,Earth*%
%TA.AperFunction,SMDPad,CuDef*%
G36*
G01*
X115325000Y-105012500D02*
X115325000Y-105487500D01*
G75*
G02*
X115087500Y-105725000I-237500J0D01*
G01*
X114512500Y-105725000D01*
G75*
G02*
X114275000Y-105487500I0J237500D01*
G01*
X114275000Y-105012500D01*
G75*
G02*
X114512500Y-104775000I237500J0D01*
G01*
X115087500Y-104775000D01*
G75*
G02*
X115325000Y-105012500I0J-237500D01*
G01*
G37*
%TD.AperFunction*%
%TD*%
%TO.P,C28,2*%
%TO.N,Net-(C28-Pad2)*%
%TA.AperFunction,SMDPad,CuDef*%
G36*
G01*
X113575000Y-103312500D02*
X113575000Y-103787500D01*
G75*
G02*
X113337500Y-104025000I-237500J0D01*
G01*
X112762500Y-104025000D01*
G75*
G02*
X112525000Y-103787500I0J237500D01*
G01*
X112525000Y-103312500D01*
G75*
G02*
X112762500Y-103075000I237500J0D01*
G01*
X113337500Y-103075000D01*
G75*
G02*
X113575000Y-103312500I0J-237500D01*
G01*
G37*
%TD.AperFunction*%
%TO.P,C28,1*%
%TO.N,Earth*%
%TA.AperFunction,SMDPad,CuDef*%
G36*
G01*
X115325000Y-103312500D02*
X115325000Y-103787500D01*
G75*
G02*
X115087500Y-104025000I-237500J0D01*
G01*
X114512500Y-104025000D01*
G75*
G02*
X114275000Y-103787500I0J237500D01*
G01*
X114275000Y-103312500D01*
G75*
G02*
X114512500Y-103075000I237500J0D01*
G01*
X115087500Y-103075000D01*
G75*
G02*
X115325000Y-103312500I0J-237500D01*
G01*
G37*
%TD.AperFunction*%
%TD*%
%TO.P,C27,2*%
%TO.N,Net-(C27-Pad2)*%
%TA.AperFunction,SMDPad,CuDef*%
G36*
G01*
X114275000Y-121437500D02*
X114275000Y-120962500D01*
G75*
G02*
X114512500Y-120725000I237500J0D01*
G01*
X115087500Y-120725000D01*
G75*
G02*
X115325000Y-120962500I0J-237500D01*
G01*
X115325000Y-121437500D01*
G75*
G02*
X115087500Y-121675000I-237500J0D01*
G01*
X114512500Y-121675000D01*
G75*
G02*
X114275000Y-121437500I0J237500D01*
G01*
G37*
%TD.AperFunction*%
%TO.P,C27,1*%
%TO.N,Net-(C27-Pad1)*%
%TA.AperFunction,SMDPad,CuDef*%
G36*
G01*
X112525000Y-121437500D02*
X112525000Y-120962500D01*
G75*
G02*
X112762500Y-120725000I237500J0D01*
G01*
X113337500Y-120725000D01*
G75*
G02*
X113575000Y-120962500I0J-237500D01*
G01*
X113575000Y-121437500D01*
G75*
G02*
X113337500Y-121675000I-237500J0D01*
G01*
X112762500Y-121675000D01*
G75*
G02*
X112525000Y-121437500I0J237500D01*
G01*
G37*
%TD.AperFunction*%
%TD*%
%TO.P,C26,2*%
%TO.N,Net-(C26-Pad2)*%
%TA.AperFunction,SMDPad,CuDef*%
G36*
G01*
X113575000Y-123112500D02*
X113575000Y-123587500D01*
G75*
G02*
X113337500Y-123825000I-237500J0D01*
G01*
X112762500Y-123825000D01*
G75*
G02*
X112525000Y-123587500I0J237500D01*
G01*
X112525000Y-123112500D01*
G75*
G02*
X112762500Y-122875000I237500J0D01*
G01*
X113337500Y-122875000D01*
G75*
G02*
X113575000Y-123112500I0J-237500D01*
G01*
G37*
%TD.AperFunction*%
%TO.P,C26,1*%
%TO.N,Net-(C26-Pad1)*%
%TA.AperFunction,SMDPad,CuDef*%
G36*
G01*
X115325000Y-123112500D02*
X115325000Y-123587500D01*
G75*
G02*
X115087500Y-123825000I-237500J0D01*
G01*
X114512500Y-123825000D01*
G75*
G02*
X114275000Y-123587500I0J237500D01*
G01*
X114275000Y-123112500D01*
G75*
G02*
X114512500Y-122875000I237500J0D01*
G01*
X115087500Y-122875000D01*
G75*
G02*
X115325000Y-123112500I0J-237500D01*
G01*
G37*
%TD.AperFunction*%
%TD*%
D15*
%TO.N,Earth*%
X131250000Y-119350000D03*
X131300000Y-123750000D03*
X124650000Y-123982221D03*
X126800000Y-123300000D03*
X114800000Y-119050000D03*
X112500000Y-127300000D03*
X115450000Y-129650000D03*
X139375000Y-130800000D03*
%TO.N,/+3.3V*%
X119800000Y-116100000D03*
X119625000Y-119400000D03*
X111450000Y-119950000D03*
X123100000Y-131500000D03*
X111450000Y-129650000D03*
X119669975Y-110669975D03*
X127475000Y-112725000D03*
%TO.N,+5V*%
X109450000Y-129650000D03*
%TO.N,/USART2_RX*%
X124600000Y-109000000D03*
X121250000Y-122600000D03*
%TO.N,/USART2_TX*%
X119700000Y-121600000D03*
X123200000Y-109100000D03*
%TO.N,/SWCLK*%
X134500000Y-131900000D03*
X123250000Y-105550000D03*
%TO.N,/SWIO*%
X129250000Y-131700000D03*
X122150000Y-105550000D03*
%TO.N,/LED1*%
X123300000Y-134750000D03*
%TO.N,/PWM2*%
X135200000Y-125950000D03*
%TO.N,/PWM1*%
X136200003Y-125950000D03*
%TO.N,/PWM4*%
X126936048Y-131747901D03*
%TO.N,/PWM3*%
X125850000Y-131047901D03*
%TO.N,/OLED_MOSI*%
X119950000Y-126550000D03*
%TO.N,/OLED_SCK*%
X118950000Y-125750000D03*
%TO.N,/OLED_DC*%
X119250000Y-129950000D03*
%TO.N,/OLED_RES*%
X119753766Y-128783967D03*
%TO.N,/OLED_CS*%
X119669891Y-127713487D03*
%TO.N,/MPU_SDA*%
X125725000Y-110950000D03*
X123950000Y-129400000D03*
%TO.N,/MPU_SCL*%
X125725000Y-112725000D03*
X122900000Y-128650000D03*
%TO.N,/BLE_TX*%
X130150000Y-129350000D03*
X128849999Y-113199999D03*
%TO.N,/BLE_RX*%
X128450000Y-130150000D03*
X129850000Y-113800000D03*
%TD*%
D16*
%TO.N,Earth*%
X108500000Y-103150000D02*
X108500000Y-103850000D01*
X108500000Y-106650000D02*
X108500000Y-109450000D01*
X108500000Y-112250000D02*
X108500000Y-112950000D01*
X108500000Y-107350000D02*
X110550000Y-107350000D01*
X110550000Y-107350000D02*
X111950000Y-108750000D01*
X113400000Y-108750000D02*
X114800000Y-107350000D01*
X111950000Y-108750000D02*
X113400000Y-108750000D01*
X114800000Y-103550000D02*
X114800000Y-107350000D01*
X114800000Y-103550000D02*
X113550000Y-102300000D01*
X109350000Y-102300000D02*
X108500000Y-103150000D01*
X113550000Y-102300000D02*
X109350000Y-102300000D01*
X118185000Y-107350000D02*
X118580000Y-106955000D01*
X114800000Y-107350000D02*
X118185000Y-107350000D01*
X133815000Y-113550000D02*
X127220000Y-106955000D01*
X138550000Y-113550000D02*
X133815000Y-113550000D01*
D17*
X131250000Y-123700000D02*
X131300000Y-123750000D01*
X131250000Y-119350000D02*
X131250000Y-123700000D01*
X114800000Y-117300000D02*
X114800000Y-119050000D01*
X110450000Y-112950000D02*
X108500000Y-112950000D01*
X114800000Y-117300000D02*
X110450000Y-112950000D01*
X106750000Y-109450000D02*
X106050000Y-110150000D01*
X108500000Y-109450000D02*
X106750000Y-109450000D01*
X106750000Y-112250000D02*
X108500000Y-112250000D01*
X106050000Y-111550000D02*
X106750000Y-112250000D01*
X106050000Y-110150000D02*
X106050000Y-111550000D01*
X126800000Y-123300000D02*
X125367779Y-123982221D01*
X130850000Y-123300000D02*
X131300000Y-123750000D01*
X125367779Y-123982221D02*
X124650000Y-123982221D01*
X126800000Y-123300000D02*
X130850000Y-123300000D01*
X113999990Y-119850010D02*
X114800000Y-119050000D01*
X112423012Y-119850010D02*
X113999990Y-119850010D01*
X111123002Y-118550000D02*
X112423012Y-119850010D01*
X108500000Y-118550000D02*
X111123002Y-118550000D01*
X108750010Y-124150010D02*
X115320500Y-124150010D01*
X108500000Y-123900000D02*
X108750010Y-124150010D01*
X115320500Y-124150010D02*
X115850000Y-123620510D01*
X108500000Y-123450000D02*
X108500000Y-123900000D01*
X115850000Y-120100000D02*
X114800000Y-119050000D01*
X115850000Y-123620510D02*
X115850000Y-120100000D01*
X114850000Y-129650000D02*
X115450000Y-129650000D01*
X112500000Y-127300000D02*
X114850000Y-129650000D01*
D16*
X139525001Y-127975001D02*
X138550000Y-127000000D01*
X139525001Y-130649999D02*
X139525001Y-127975001D01*
X139375000Y-130800000D02*
X139525001Y-130649999D01*
%TO.N,/+3.3V*%
X119800000Y-119225000D02*
X119625000Y-119400000D01*
X119800000Y-116100000D02*
X119800000Y-119225000D01*
X108500000Y-119950000D02*
X110200000Y-119950000D01*
D17*
X111450000Y-119950000D02*
X108500000Y-119950000D01*
X108500000Y-117850000D02*
X106900000Y-117850000D01*
X106900000Y-117850000D02*
X106350000Y-118400000D01*
X106350000Y-119385002D02*
X106914998Y-119950000D01*
X106914998Y-119950000D02*
X108500000Y-119950000D01*
X106350000Y-118400000D02*
X106350000Y-119385002D01*
X123100000Y-131500000D02*
X121750000Y-132850000D01*
X114650000Y-132850000D02*
X111450000Y-129650000D01*
X121750000Y-132850000D02*
X114650000Y-132850000D01*
D16*
X127475000Y-111663998D02*
X127475000Y-112725000D01*
X126061001Y-110249999D02*
X127475000Y-111663998D01*
X120089951Y-110249999D02*
X126061001Y-110249999D01*
X119669975Y-110669975D02*
X120089951Y-110249999D01*
%TO.N,+5V*%
X138550000Y-132450000D02*
X137150000Y-131050000D01*
X137150000Y-120950000D02*
X138550000Y-119550000D01*
X137150000Y-131050000D02*
X137150000Y-120950000D01*
X113075010Y-133275010D02*
X109450000Y-129650000D01*
X123576064Y-133275010D02*
X113075010Y-133275010D01*
X139525001Y-136918001D02*
X139018001Y-137425001D01*
X139018001Y-137425001D02*
X127726055Y-137425001D01*
X139525001Y-133425001D02*
X139525001Y-136918001D01*
X127726055Y-137425001D02*
X123576064Y-133275010D01*
X138550000Y-132450000D02*
X139525001Y-133425001D01*
%TO.N,Net-(C26-Pad2)*%
X108699999Y-122949999D02*
X108500000Y-122750000D01*
X112649999Y-122949999D02*
X108699999Y-122949999D01*
X113050000Y-123350000D02*
X112649999Y-122949999D01*
%TO.N,Net-(C26-Pad1)*%
X110040002Y-122050000D02*
X110440002Y-122450000D01*
X108500000Y-122050000D02*
X110040002Y-122050000D01*
X113900000Y-122450000D02*
X114800000Y-123350000D01*
X110440002Y-122450000D02*
X113900000Y-122450000D01*
%TO.N,Net-(C27-Pad2)*%
X110040002Y-121350000D02*
X108500000Y-121350000D01*
X110665012Y-121975010D02*
X110040002Y-121350000D01*
X114024990Y-121975010D02*
X110665012Y-121975010D01*
X114800000Y-121200000D02*
X114024990Y-121975010D01*
%TO.N,Net-(C27-Pad1)*%
X112500000Y-120650000D02*
X108500000Y-120650000D01*
X113050000Y-121200000D02*
X112500000Y-120650000D01*
%TO.N,Net-(C28-Pad2)*%
X112050000Y-104550000D02*
X108500000Y-104550000D01*
X113050000Y-103550000D02*
X112050000Y-104550000D01*
%TO.N,Net-(C29-Pad2)*%
X113050000Y-105250000D02*
X108500000Y-105250000D01*
%TO.N,/USART2_RX*%
X121300000Y-121750000D02*
X121250000Y-122600000D01*
X118550000Y-119950000D02*
X121300000Y-121750000D01*
X118600000Y-110750000D02*
X118550000Y-119950000D01*
X119549999Y-109800001D02*
X118600000Y-110750000D01*
X123799999Y-109800001D02*
X119549999Y-109800001D01*
X124600000Y-109000000D02*
X123799999Y-109800001D01*
%TO.N,/USART2_TX*%
X119450000Y-121600000D02*
X119700000Y-121600000D01*
X119500000Y-109100000D02*
X118000000Y-110600000D01*
X118000000Y-120600000D02*
X119450000Y-121600000D01*
X118000000Y-110600000D02*
X118000000Y-120600000D01*
X123200000Y-109100000D02*
X119500000Y-109100000D01*
%TO.N,/SWCLK*%
X134500000Y-115950000D02*
X134500000Y-131900000D01*
X123250000Y-105550000D02*
X134500000Y-115950000D01*
%TO.N,/SWIO*%
X133050000Y-131650000D02*
X129250000Y-131700000D01*
X133750000Y-116350000D02*
X133750000Y-130950000D01*
X133750000Y-130950000D02*
X133050000Y-131650000D01*
X122150000Y-105550000D02*
X122750000Y-106113998D01*
X122750000Y-106113998D02*
X133750000Y-116350000D01*
%TO.N,/LED1*%
X137300000Y-147943002D02*
X137300000Y-148500000D01*
X124106998Y-134750000D02*
X137300000Y-147943002D01*
X123300000Y-134750000D02*
X124106998Y-134750000D01*
%TO.N,/PWM2*%
X135200000Y-125950000D02*
X135200000Y-116600000D01*
X136250000Y-115550000D02*
X138550000Y-115550000D01*
X135200000Y-116600000D02*
X136250000Y-115550000D01*
%TO.N,/PWM1*%
X138550000Y-117550000D02*
X136300000Y-117550000D01*
X136200003Y-117649997D02*
X136200003Y-125950000D01*
X136300000Y-117550000D02*
X136200003Y-117649997D01*
%TO.N,/PWM4*%
X131638147Y-136450000D02*
X138550000Y-136450000D01*
X126936048Y-131747901D02*
X131638147Y-136450000D01*
%TO.N,/PWM3*%
X130963998Y-134450000D02*
X138550000Y-134450000D01*
X127561899Y-131047901D02*
X130963998Y-134450000D01*
X125850000Y-131047901D02*
X127561899Y-131047901D01*
%TO.N,Net-(J13-Pad26)*%
X112125000Y-105950000D02*
X108500000Y-105950000D01*
X113050000Y-106875000D02*
X112125000Y-105950000D01*
X113050000Y-107350000D02*
X113050000Y-106875000D01*
%TO.N,Net-(J13-Pad20)*%
X114800000Y-110850000D02*
X114800000Y-110650000D01*
X114800000Y-110650000D02*
X113800000Y-109650000D01*
X110200000Y-110150000D02*
X108500000Y-110150000D01*
X110700000Y-109650000D02*
X110200000Y-110150000D01*
X113800000Y-109650000D02*
X110700000Y-109650000D01*
%TO.N,/OLED_MOSI*%
X119950000Y-125713998D02*
X117100000Y-122863998D01*
X119950000Y-126550000D02*
X119950000Y-125713998D01*
X113050000Y-112734301D02*
X113050000Y-110850000D01*
X117100000Y-116784301D02*
X113050000Y-112734301D01*
X117100000Y-122863998D02*
X117100000Y-116784301D01*
D17*
X113050000Y-110850000D02*
X108500000Y-110850000D01*
D16*
%TO.N,/OLED_SCK*%
X116400000Y-117050000D02*
X116450000Y-123750000D01*
X110335156Y-111550000D02*
X116400000Y-117050000D01*
X116450000Y-123750000D02*
X118950000Y-125750000D01*
X108500000Y-111550000D02*
X110335156Y-111550000D01*
%TO.N,/OLED_DC*%
X108500000Y-113650000D02*
X105800000Y-113650000D01*
X105800000Y-113650000D02*
X104150000Y-115300000D01*
X104150000Y-115300000D02*
X104150000Y-124450000D01*
X104150000Y-124450000D02*
X106250000Y-126550000D01*
X115850000Y-126550000D02*
X119250000Y-129950000D01*
X106250000Y-126550000D02*
X115850000Y-126550000D01*
%TO.N,/OLED_RES*%
X106200000Y-114350000D02*
X108500000Y-114350000D01*
X105000000Y-115550000D02*
X106200000Y-114350000D01*
X116050000Y-125700000D02*
X106600000Y-125700000D01*
X119188081Y-128783967D02*
X116050000Y-125700000D01*
X105000000Y-124100000D02*
X105000000Y-115550000D01*
X106600000Y-125700000D02*
X105000000Y-124100000D01*
X119753766Y-128783967D02*
X119188081Y-128783967D01*
%TO.N,/OLED_CS*%
X105700000Y-115950000D02*
X106800000Y-115050000D01*
X105700000Y-123750000D02*
X105700000Y-115950000D01*
X106800000Y-115050000D02*
X108500000Y-115050000D01*
X106600000Y-124700000D02*
X105700000Y-123750000D01*
X116500000Y-124950000D02*
X106600000Y-124700000D01*
X119669891Y-127713487D02*
X116500000Y-124950000D01*
%TO.N,Net-(J13-Pad11)*%
X112675000Y-116450000D02*
X108500000Y-116450000D01*
X113050000Y-116825000D02*
X112675000Y-116450000D01*
X113050000Y-117300000D02*
X113050000Y-116825000D01*
%TO.N,Net-(J13-Pad10)*%
X111150000Y-117150000D02*
X108500000Y-117150000D01*
X113050000Y-119050000D02*
X111150000Y-117150000D01*
%TO.N,/MPU_SDA*%
X126425001Y-111650001D02*
X126425001Y-113624999D01*
X125725000Y-110950000D02*
X126425001Y-111650001D01*
X123950000Y-116100000D02*
X123950000Y-129400000D01*
X126425001Y-113624999D02*
X123950000Y-116100000D01*
%TO.N,/MPU_SCL*%
X125725000Y-112725000D02*
X125725000Y-113525000D01*
X125725000Y-113525000D02*
X123300000Y-115950000D01*
X123300000Y-128250000D02*
X122900000Y-128650000D01*
X123300000Y-115950000D02*
X123300000Y-128250000D01*
%TO.N,/BLE_TX*%
X132450000Y-128900000D02*
X131750000Y-129350000D01*
X132450000Y-117900000D02*
X132450000Y-128900000D01*
X131750000Y-129350000D02*
X130150000Y-129350000D01*
X128850000Y-114400000D02*
X132450000Y-117900000D01*
X128849999Y-113199999D02*
X128850000Y-114400000D01*
%TO.N,/BLE_RX*%
X131750000Y-130150000D02*
X128450000Y-130150000D01*
X133150000Y-117503948D02*
X133150000Y-129200000D01*
X129850000Y-113800000D02*
X133150000Y-117503948D01*
X133150000Y-129200000D02*
X131750000Y-130150000D01*
%TD*%
D18*
%TO.N,Earth*%
G36*
X135240000Y-109467581D02*
G01*
X135236807Y-109500000D01*
X135249550Y-109629383D01*
X135287290Y-109753793D01*
X135348575Y-109868450D01*
X135395506Y-109925635D01*
X135431052Y-109968948D01*
X135531550Y-110051425D01*
X135646207Y-110112710D01*
X135770617Y-110150450D01*
X135900000Y-110163193D01*
X135932419Y-110160000D01*
X139340000Y-110160000D01*
X139340000Y-112505083D01*
X139339537Y-112504656D01*
X139120430Y-112370711D01*
X138879401Y-112282085D01*
X138677000Y-112404915D01*
X138677000Y-113423000D01*
X138697000Y-113423000D01*
X138697000Y-113677000D01*
X138677000Y-113677000D01*
X138677000Y-113697000D01*
X138423000Y-113697000D01*
X138423000Y-113677000D01*
X137405776Y-113677000D01*
X137282090Y-113879400D01*
X137312762Y-113980528D01*
X137420527Y-114213629D01*
X137571697Y-114421227D01*
X137704060Y-114543319D01*
X137532456Y-114714923D01*
X137465587Y-114815000D01*
X136286094Y-114815000D01*
X136249999Y-114811445D01*
X136213904Y-114815000D01*
X136213895Y-114815000D01*
X136105915Y-114825635D01*
X135967367Y-114867663D01*
X135839680Y-114935913D01*
X135727762Y-115027762D01*
X135704746Y-115055807D01*
X135151884Y-115608670D01*
X135141418Y-115590812D01*
X135114087Y-115539680D01*
X135104864Y-115528442D01*
X135097516Y-115515904D01*
X135059007Y-115472566D01*
X135022237Y-115427762D01*
X134983038Y-115395592D01*
X132630283Y-113220600D01*
X137282090Y-113220600D01*
X137405776Y-113423000D01*
X138423000Y-113423000D01*
X138423000Y-112404915D01*
X138220599Y-112282085D01*
X137979570Y-112370711D01*
X137760463Y-112504656D01*
X137571697Y-112678773D01*
X137420527Y-112886371D01*
X137312762Y-113119472D01*
X137282090Y-113220600D01*
X132630283Y-113220600D01*
X127600605Y-108570943D01*
X127744976Y-108519276D01*
X127932764Y-108397369D01*
X128093161Y-108241169D01*
X128220003Y-108056678D01*
X128308415Y-107850987D01*
X128355000Y-107632000D01*
X128355000Y-107082000D01*
X127347000Y-107082000D01*
X127347000Y-107102000D01*
X127093000Y-107102000D01*
X127093000Y-107082000D01*
X127073000Y-107082000D01*
X127073000Y-106828000D01*
X127093000Y-106828000D01*
X127093000Y-105437046D01*
X127347000Y-105437046D01*
X127347000Y-106828000D01*
X128355000Y-106828000D01*
X128355000Y-106278000D01*
X128308415Y-106059013D01*
X128220003Y-105853322D01*
X128093161Y-105668831D01*
X127932764Y-105512631D01*
X127744976Y-105390724D01*
X127521874Y-105310881D01*
X127347000Y-105437046D01*
X127093000Y-105437046D01*
X126918126Y-105310881D01*
X126695024Y-105390724D01*
X126507236Y-105512631D01*
X126346839Y-105668831D01*
X126345117Y-105671335D01*
X126244731Y-105604259D01*
X126070022Y-105531892D01*
X125884552Y-105495000D01*
X125695448Y-105495000D01*
X125509978Y-105531892D01*
X125335269Y-105604259D01*
X125178036Y-105709319D01*
X125044319Y-105843036D01*
X124939259Y-106000269D01*
X124906189Y-106080106D01*
X124285000Y-105505851D01*
X124285000Y-105448061D01*
X124245226Y-105248102D01*
X124167205Y-105059744D01*
X124053937Y-104890226D01*
X123909774Y-104746063D01*
X123740256Y-104632795D01*
X123551898Y-104554774D01*
X123351939Y-104515000D01*
X123148061Y-104515000D01*
X122948102Y-104554774D01*
X122759744Y-104632795D01*
X122700000Y-104672715D01*
X122640256Y-104632795D01*
X122451898Y-104554774D01*
X122251939Y-104515000D01*
X122048061Y-104515000D01*
X121848102Y-104554774D01*
X121659744Y-104632795D01*
X121490226Y-104746063D01*
X121346063Y-104890226D01*
X121232795Y-105059744D01*
X121154774Y-105248102D01*
X121115000Y-105448061D01*
X121115000Y-105651939D01*
X121154774Y-105851898D01*
X121232795Y-106040256D01*
X121346063Y-106209774D01*
X121490226Y-106353937D01*
X121659744Y-106467205D01*
X121848102Y-106545226D01*
X122048061Y-106585000D01*
X122177932Y-106585000D01*
X122221643Y-106626088D01*
X122222867Y-106627475D01*
X122247839Y-106650713D01*
X122272898Y-106674268D01*
X122274375Y-106675406D01*
X123924949Y-108211340D01*
X123848056Y-108288233D01*
X123690256Y-108182795D01*
X123501898Y-108104774D01*
X123301939Y-108065000D01*
X123098061Y-108065000D01*
X122898102Y-108104774D01*
X122709744Y-108182795D01*
X122540226Y-108296063D01*
X122471289Y-108365000D01*
X119536094Y-108365000D01*
X119499999Y-108361445D01*
X119463904Y-108365000D01*
X119463895Y-108365000D01*
X119355915Y-108375635D01*
X119296608Y-108393626D01*
X119453161Y-108241169D01*
X119580003Y-108056678D01*
X119668415Y-107850987D01*
X119715000Y-107632000D01*
X119715000Y-107371904D01*
X119729978Y-107378108D01*
X119915448Y-107415000D01*
X120104552Y-107415000D01*
X120290022Y-107378108D01*
X120464731Y-107305741D01*
X120621964Y-107200681D01*
X120755681Y-107066964D01*
X120860741Y-106909731D01*
X120933108Y-106735022D01*
X120970000Y-106549552D01*
X120970000Y-106360448D01*
X120933108Y-106174978D01*
X120860741Y-106000269D01*
X120755681Y-105843036D01*
X120621964Y-105709319D01*
X120464731Y-105604259D01*
X120290022Y-105531892D01*
X120104552Y-105495000D01*
X119915448Y-105495000D01*
X119729978Y-105531892D01*
X119555269Y-105604259D01*
X119454883Y-105671335D01*
X119453161Y-105668831D01*
X119292764Y-105512631D01*
X119104976Y-105390724D01*
X118881874Y-105310881D01*
X118707000Y-105437046D01*
X118707000Y-106828000D01*
X118727000Y-106828000D01*
X118727000Y-107082000D01*
X118707000Y-107082000D01*
X118707000Y-108472954D01*
X118881874Y-108599119D01*
X119005763Y-108554782D01*
X118977762Y-108577762D01*
X118954746Y-108605807D01*
X117505808Y-110054746D01*
X117477762Y-110077763D01*
X117385913Y-110189681D01*
X117317663Y-110317368D01*
X117291157Y-110404747D01*
X117275635Y-110455915D01*
X117261444Y-110600000D01*
X117265000Y-110636105D01*
X117265001Y-115909855D01*
X113785000Y-112429855D01*
X113785000Y-111836327D01*
X113823942Y-111815512D01*
X113925000Y-111732575D01*
X114026058Y-111815512D01*
X114177433Y-111896423D01*
X114341684Y-111946248D01*
X114512500Y-111963072D01*
X115087500Y-111963072D01*
X115258316Y-111946248D01*
X115422567Y-111896423D01*
X115573942Y-111815512D01*
X115706623Y-111706623D01*
X115815512Y-111573942D01*
X115896423Y-111422567D01*
X115946248Y-111258316D01*
X115963072Y-111087500D01*
X115963072Y-110612500D01*
X115946248Y-110441684D01*
X115896423Y-110277433D01*
X115815512Y-110126058D01*
X115706623Y-109993377D01*
X115573942Y-109884488D01*
X115422567Y-109803577D01*
X115258316Y-109753752D01*
X115087500Y-109736928D01*
X114926375Y-109736928D01*
X114345258Y-109155812D01*
X114322238Y-109127762D01*
X114210320Y-109035913D01*
X114082633Y-108967663D01*
X113944085Y-108925635D01*
X113836105Y-108915000D01*
X113800000Y-108911444D01*
X113763895Y-108915000D01*
X110736105Y-108915000D01*
X110700000Y-108911444D01*
X110663895Y-108915000D01*
X110576826Y-108923576D01*
X110476250Y-108823000D01*
X110470709Y-108823000D01*
X110447227Y-108794891D01*
X110391542Y-108750000D01*
X110447227Y-108705109D01*
X110470709Y-108677000D01*
X110476250Y-108677000D01*
X110635000Y-108518250D01*
X110624701Y-108420057D01*
X110618425Y-108400000D01*
X110624701Y-108379943D01*
X110635000Y-108281750D01*
X110476250Y-108123000D01*
X110470709Y-108123000D01*
X110447227Y-108094891D01*
X110391542Y-108050000D01*
X110447227Y-108005109D01*
X110470709Y-107977000D01*
X110476250Y-107977000D01*
X110635000Y-107818250D01*
X110624701Y-107720057D01*
X110618425Y-107700000D01*
X110624701Y-107679943D01*
X110635000Y-107581750D01*
X110476250Y-107423000D01*
X110470709Y-107423000D01*
X110447227Y-107394891D01*
X110391542Y-107350000D01*
X110447227Y-107305109D01*
X110470709Y-107277000D01*
X110476250Y-107277000D01*
X110635000Y-107118250D01*
X110624701Y-107020057D01*
X110618425Y-107000000D01*
X110624701Y-106979943D01*
X110635000Y-106881750D01*
X110530252Y-106777002D01*
X110635000Y-106777002D01*
X110635000Y-106685000D01*
X111820554Y-106685000D01*
X111944130Y-106808576D01*
X111903752Y-106941684D01*
X111886928Y-107112500D01*
X111886928Y-107587500D01*
X111903752Y-107758316D01*
X111953577Y-107922567D01*
X112034488Y-108073942D01*
X112143377Y-108206623D01*
X112276058Y-108315512D01*
X112427433Y-108396423D01*
X112591684Y-108446248D01*
X112762500Y-108463072D01*
X113337500Y-108463072D01*
X113508316Y-108446248D01*
X113672567Y-108396423D01*
X113823942Y-108315512D01*
X113847839Y-108295901D01*
X113920506Y-108355537D01*
X114030820Y-108414502D01*
X114150518Y-108450812D01*
X114275000Y-108463072D01*
X114514250Y-108460000D01*
X114673000Y-108301250D01*
X114673000Y-107477000D01*
X114927000Y-107477000D01*
X114927000Y-108301250D01*
X115085750Y-108460000D01*
X115325000Y-108463072D01*
X115449482Y-108450812D01*
X115569180Y-108414502D01*
X115679494Y-108355537D01*
X115776185Y-108276185D01*
X115855537Y-108179494D01*
X115914502Y-108069180D01*
X115950812Y-107949482D01*
X115963072Y-107825000D01*
X115960000Y-107635750D01*
X115801250Y-107477000D01*
X114927000Y-107477000D01*
X114673000Y-107477000D01*
X114653000Y-107477000D01*
X114653000Y-107223000D01*
X114673000Y-107223000D01*
X114673000Y-106398750D01*
X114574250Y-106300000D01*
X114673000Y-106201250D01*
X114673000Y-105377000D01*
X114927000Y-105377000D01*
X114927000Y-106201250D01*
X115025750Y-106300000D01*
X114927000Y-106398750D01*
X114927000Y-107223000D01*
X115801250Y-107223000D01*
X115942250Y-107082000D01*
X117445000Y-107082000D01*
X117445000Y-107632000D01*
X117491585Y-107850987D01*
X117579997Y-108056678D01*
X117706839Y-108241169D01*
X117867236Y-108397369D01*
X118055024Y-108519276D01*
X118278126Y-108599119D01*
X118453000Y-108472954D01*
X118453000Y-107082000D01*
X117445000Y-107082000D01*
X115942250Y-107082000D01*
X115960000Y-107064250D01*
X115963072Y-106875000D01*
X115950812Y-106750518D01*
X115914502Y-106630820D01*
X115855537Y-106520506D01*
X115776185Y-106423815D01*
X115679494Y-106344463D01*
X115596311Y-106300000D01*
X115637469Y-106278000D01*
X117445000Y-106278000D01*
X117445000Y-106828000D01*
X118453000Y-106828000D01*
X118453000Y-105437046D01*
X118278126Y-105310881D01*
X118055024Y-105390724D01*
X117867236Y-105512631D01*
X117706839Y-105668831D01*
X117579997Y-105853322D01*
X117491585Y-106059013D01*
X117445000Y-106278000D01*
X115637469Y-106278000D01*
X115679494Y-106255537D01*
X115776185Y-106176185D01*
X115855537Y-106079494D01*
X115914502Y-105969180D01*
X115950812Y-105849482D01*
X115963072Y-105725000D01*
X115960000Y-105535750D01*
X115801250Y-105377000D01*
X114927000Y-105377000D01*
X114673000Y-105377000D01*
X114653000Y-105377000D01*
X114653000Y-105123000D01*
X114673000Y-105123000D01*
X114673000Y-103677000D01*
X114927000Y-103677000D01*
X114927000Y-105123000D01*
X115801250Y-105123000D01*
X115960000Y-104964250D01*
X115963072Y-104775000D01*
X115950812Y-104650518D01*
X115914502Y-104530820D01*
X115855537Y-104420506D01*
X115838708Y-104400000D01*
X115855537Y-104379494D01*
X115914502Y-104269180D01*
X115950812Y-104149482D01*
X115963072Y-104025000D01*
X115960000Y-103835750D01*
X115801250Y-103677000D01*
X114927000Y-103677000D01*
X114673000Y-103677000D01*
X114653000Y-103677000D01*
X114653000Y-103423000D01*
X114673000Y-103423000D01*
X114673000Y-102598750D01*
X114927000Y-102598750D01*
X114927000Y-103423000D01*
X115801250Y-103423000D01*
X115960000Y-103264250D01*
X115963072Y-103075000D01*
X115950812Y-102950518D01*
X115936095Y-102902000D01*
X117445000Y-102902000D01*
X117445000Y-103202000D01*
X117491585Y-103420987D01*
X117579997Y-103626678D01*
X117706839Y-103811169D01*
X117867236Y-103967369D01*
X118055024Y-104089276D01*
X118278126Y-104169119D01*
X118453000Y-104042954D01*
X118453000Y-102902000D01*
X118707000Y-102902000D01*
X118707000Y-104042954D01*
X118881874Y-104169119D01*
X119104976Y-104089276D01*
X119292764Y-103967369D01*
X119453161Y-103811169D01*
X119580003Y-103626678D01*
X119668415Y-103420987D01*
X119715000Y-103202000D01*
X119715000Y-102902000D01*
X126085000Y-102902000D01*
X126085000Y-103202000D01*
X126131585Y-103420987D01*
X126219997Y-103626678D01*
X126346839Y-103811169D01*
X126507236Y-103967369D01*
X126695024Y-104089276D01*
X126918126Y-104169119D01*
X127093000Y-104042954D01*
X127093000Y-102902000D01*
X127347000Y-102902000D01*
X127347000Y-104042954D01*
X127521874Y-104169119D01*
X127744976Y-104089276D01*
X127932764Y-103967369D01*
X128093161Y-103811169D01*
X128220003Y-103626678D01*
X128308415Y-103420987D01*
X128355000Y-103202000D01*
X128355000Y-102902000D01*
X127347000Y-102902000D01*
X127093000Y-102902000D01*
X126085000Y-102902000D01*
X119715000Y-102902000D01*
X118707000Y-102902000D01*
X118453000Y-102902000D01*
X117445000Y-102902000D01*
X115936095Y-102902000D01*
X115914502Y-102830820D01*
X115855537Y-102720506D01*
X115776185Y-102623815D01*
X115679494Y-102544463D01*
X115569180Y-102485498D01*
X115449482Y-102449188D01*
X115325000Y-102436928D01*
X115085750Y-102440000D01*
X114927000Y-102598750D01*
X114673000Y-102598750D01*
X114514250Y-102440000D01*
X114275000Y-102436928D01*
X114150518Y-102449188D01*
X114030820Y-102485498D01*
X113920506Y-102544463D01*
X113847839Y-102604099D01*
X113823942Y-102584488D01*
X113672567Y-102503577D01*
X113508316Y-102453752D01*
X113337500Y-102436928D01*
X112762500Y-102436928D01*
X112591684Y-102453752D01*
X112427433Y-102503577D01*
X112276058Y-102584488D01*
X112143377Y-102693377D01*
X112034488Y-102826058D01*
X111953577Y-102977433D01*
X111903752Y-103141684D01*
X111886928Y-103312500D01*
X111886928Y-103673626D01*
X111745554Y-103815000D01*
X110635000Y-103815000D01*
X110635000Y-103722998D01*
X110530252Y-103722998D01*
X110635000Y-103618250D01*
X110624701Y-103520057D01*
X110618425Y-103500000D01*
X110624701Y-103479943D01*
X110635000Y-103381750D01*
X110476250Y-103223000D01*
X110470709Y-103223000D01*
X110447227Y-103194891D01*
X110349846Y-103116387D01*
X110274585Y-103077000D01*
X110476250Y-103077000D01*
X110635000Y-102918250D01*
X110624701Y-102820057D01*
X110587346Y-102700681D01*
X110527421Y-102590886D01*
X110447227Y-102494891D01*
X110349846Y-102416387D01*
X110239021Y-102358388D01*
X110203668Y-102348000D01*
X117445000Y-102348000D01*
X117445000Y-102648000D01*
X118453000Y-102648000D01*
X118453000Y-101507046D01*
X118707000Y-101507046D01*
X118707000Y-102648000D01*
X119715000Y-102648000D01*
X119715000Y-102348000D01*
X126085000Y-102348000D01*
X126085000Y-102648000D01*
X127093000Y-102648000D01*
X127093000Y-101507046D01*
X127347000Y-101507046D01*
X127347000Y-102648000D01*
X128355000Y-102648000D01*
X128355000Y-102348000D01*
X128308415Y-102129013D01*
X128220003Y-101923322D01*
X128093161Y-101738831D01*
X127932764Y-101582631D01*
X127744976Y-101460724D01*
X127521874Y-101380881D01*
X127347000Y-101507046D01*
X127093000Y-101507046D01*
X126918126Y-101380881D01*
X126695024Y-101460724D01*
X126507236Y-101582631D01*
X126346839Y-101738831D01*
X126219997Y-101923322D01*
X126131585Y-102129013D01*
X126085000Y-102348000D01*
X119715000Y-102348000D01*
X119668415Y-102129013D01*
X119580003Y-101923322D01*
X119453161Y-101738831D01*
X119292764Y-101582631D01*
X119104976Y-101460724D01*
X118881874Y-101380881D01*
X118707000Y-101507046D01*
X118453000Y-101507046D01*
X118278126Y-101380881D01*
X118055024Y-101460724D01*
X117867236Y-101582631D01*
X117706839Y-101738831D01*
X117579997Y-101923322D01*
X117491585Y-102129013D01*
X117445000Y-102348000D01*
X110203668Y-102348000D01*
X110119011Y-102323125D01*
X109994427Y-102311952D01*
X108785750Y-102315000D01*
X108627000Y-102473750D01*
X108627000Y-103077000D01*
X108723750Y-103077000D01*
X108627000Y-103173750D01*
X108627000Y-103297000D01*
X108373000Y-103297000D01*
X108373000Y-103173750D01*
X108276250Y-103077000D01*
X108373000Y-103077000D01*
X108373000Y-102473750D01*
X108214250Y-102315000D01*
X107005573Y-102311952D01*
X106880989Y-102323125D01*
X106760979Y-102358388D01*
X106650154Y-102416387D01*
X106552773Y-102494891D01*
X106472579Y-102590886D01*
X106412654Y-102700681D01*
X106375299Y-102820057D01*
X106365000Y-102918250D01*
X106523750Y-103077000D01*
X106725415Y-103077000D01*
X106650154Y-103116387D01*
X106552773Y-103194891D01*
X106529291Y-103223000D01*
X106523750Y-103223000D01*
X106365000Y-103381750D01*
X106375299Y-103479943D01*
X106381575Y-103500000D01*
X106375299Y-103520057D01*
X106365000Y-103618250D01*
X106523750Y-103777000D01*
X106529291Y-103777000D01*
X106552773Y-103805109D01*
X106608377Y-103849934D01*
X106548815Y-103898815D01*
X106528967Y-103923000D01*
X106523750Y-103923000D01*
X106365000Y-104081750D01*
X106375299Y-104179943D01*
X106381755Y-104200574D01*
X106374188Y-104225518D01*
X106361928Y-104350000D01*
X106361928Y-104750000D01*
X106374188Y-104874482D01*
X106381929Y-104900000D01*
X106374188Y-104925518D01*
X106361928Y-105050000D01*
X106361928Y-105450000D01*
X106374188Y-105574482D01*
X106381929Y-105600000D01*
X106374188Y-105625518D01*
X106361928Y-105750000D01*
X106361928Y-106150000D01*
X106374188Y-106274482D01*
X106381755Y-106299426D01*
X106375299Y-106320057D01*
X106365000Y-106418250D01*
X106523750Y-106577000D01*
X106528967Y-106577000D01*
X106548815Y-106601185D01*
X106608377Y-106650066D01*
X106552773Y-106694891D01*
X106529291Y-106723000D01*
X106523750Y-106723000D01*
X106365000Y-106881750D01*
X106375299Y-106979943D01*
X106381575Y-107000000D01*
X106375299Y-107020057D01*
X106365000Y-107118250D01*
X106523750Y-107277000D01*
X106529291Y-107277000D01*
X106552773Y-107305109D01*
X106608458Y-107350000D01*
X106552773Y-107394891D01*
X106529291Y-107423000D01*
X106523750Y-107423000D01*
X106365000Y-107581750D01*
X106375299Y-107679943D01*
X106381575Y-107700000D01*
X106375299Y-107720057D01*
X106365000Y-107818250D01*
X106523750Y-107977000D01*
X106529291Y-107977000D01*
X106552773Y-108005109D01*
X106608458Y-108050000D01*
X106552773Y-108094891D01*
X106529291Y-108123000D01*
X106523750Y-108123000D01*
X106365000Y-108281750D01*
X106375299Y-108379943D01*
X106381575Y-108400000D01*
X106375299Y-108420057D01*
X106365000Y-108518250D01*
X106523750Y-108677000D01*
X106529291Y-108677000D01*
X106552773Y-108705109D01*
X106608458Y-108750000D01*
X106552773Y-108794891D01*
X106529291Y-108823000D01*
X106523750Y-108823000D01*
X106365000Y-108981750D01*
X106375299Y-109079943D01*
X106381575Y-109100000D01*
X106375299Y-109120057D01*
X106365000Y-109218250D01*
X106523750Y-109377000D01*
X106529291Y-109377000D01*
X106552773Y-109405109D01*
X106608377Y-109449934D01*
X106548815Y-109498815D01*
X106528967Y-109523000D01*
X106523750Y-109523000D01*
X106365000Y-109681750D01*
X106375299Y-109779943D01*
X106381755Y-109800574D01*
X106374188Y-109825518D01*
X106361928Y-109950000D01*
X106361928Y-110350000D01*
X106374188Y-110474482D01*
X106381929Y-110500000D01*
X106374188Y-110525518D01*
X106361928Y-110650000D01*
X106361928Y-111050000D01*
X106374188Y-111174482D01*
X106381929Y-111200000D01*
X106374188Y-111225518D01*
X106361928Y-111350000D01*
X106361928Y-111750000D01*
X106374188Y-111874482D01*
X106381755Y-111899426D01*
X106375299Y-111920057D01*
X106365000Y-112018250D01*
X106523750Y-112177000D01*
X106528967Y-112177000D01*
X106548815Y-112201185D01*
X106608377Y-112250066D01*
X106552773Y-112294891D01*
X106529291Y-112323000D01*
X106523750Y-112323000D01*
X106365000Y-112481750D01*
X106375299Y-112579943D01*
X106381575Y-112600000D01*
X106375299Y-112620057D01*
X106365000Y-112718250D01*
X106469748Y-112822998D01*
X106365000Y-112822998D01*
X106365000Y-112915000D01*
X105836094Y-112915000D01*
X105799999Y-112911445D01*
X105763904Y-112915000D01*
X105763895Y-112915000D01*
X105655915Y-112925635D01*
X105517367Y-112967663D01*
X105389680Y-113035913D01*
X105277762Y-113127762D01*
X105254746Y-113155807D01*
X103655808Y-114754746D01*
X103627762Y-114777763D01*
X103535913Y-114889681D01*
X103467663Y-115017368D01*
X103456003Y-115055807D01*
X103425635Y-115155915D01*
X103411444Y-115300000D01*
X103415000Y-115336105D01*
X103415001Y-124413885D01*
X103411444Y-124450000D01*
X103425635Y-124594085D01*
X103464961Y-124723723D01*
X103467664Y-124732633D01*
X103535914Y-124860320D01*
X103627763Y-124972238D01*
X103655808Y-124995254D01*
X105704746Y-127044193D01*
X105727762Y-127072238D01*
X105839680Y-127164087D01*
X105967367Y-127232337D01*
X106105915Y-127274365D01*
X106213895Y-127285000D01*
X106213904Y-127285000D01*
X106249999Y-127288555D01*
X106286094Y-127285000D01*
X115545554Y-127285000D01*
X118215000Y-129954447D01*
X118215000Y-130051939D01*
X118254774Y-130251898D01*
X118332795Y-130440256D01*
X118446063Y-130609774D01*
X118590226Y-130753937D01*
X118759744Y-130867205D01*
X118948102Y-130945226D01*
X119148061Y-130985000D01*
X119351939Y-130985000D01*
X119551898Y-130945226D01*
X119740256Y-130867205D01*
X119909774Y-130753937D01*
X120053937Y-130609774D01*
X120167205Y-130440256D01*
X120245226Y-130251898D01*
X120285000Y-130051939D01*
X120285000Y-129848061D01*
X120254403Y-129694236D01*
X120413540Y-129587904D01*
X120557703Y-129443741D01*
X120670971Y-129274223D01*
X120748992Y-129085865D01*
X120788766Y-128885906D01*
X120788766Y-128682028D01*
X120748992Y-128482069D01*
X120670971Y-128293711D01*
X120596189Y-128181791D01*
X120665117Y-128015385D01*
X120704891Y-127815426D01*
X120704891Y-127611548D01*
X120665117Y-127411589D01*
X120632021Y-127331690D01*
X120753937Y-127209774D01*
X120867205Y-127040256D01*
X120945226Y-126851898D01*
X120985000Y-126651939D01*
X120985000Y-126448061D01*
X120945226Y-126248102D01*
X120867205Y-126059744D01*
X120753937Y-125890226D01*
X120685000Y-125821289D01*
X120685000Y-125750103D01*
X120688556Y-125713998D01*
X120674365Y-125569913D01*
X120632337Y-125431364D01*
X120564087Y-125303678D01*
X120508673Y-125236156D01*
X120472238Y-125191760D01*
X120444193Y-125168744D01*
X117835000Y-122559552D01*
X117835000Y-121379049D01*
X118749422Y-122009686D01*
X118782795Y-122090256D01*
X118896063Y-122259774D01*
X119040226Y-122403937D01*
X119209744Y-122517205D01*
X119398102Y-122595226D01*
X119598061Y-122635000D01*
X119801939Y-122635000D01*
X120001898Y-122595226D01*
X120190256Y-122517205D01*
X120215000Y-122500672D01*
X120215000Y-122701939D01*
X120254774Y-122901898D01*
X120332795Y-123090256D01*
X120446063Y-123259774D01*
X120590226Y-123403937D01*
X120759744Y-123517205D01*
X120948102Y-123595226D01*
X121148061Y-123635000D01*
X121351939Y-123635000D01*
X121551898Y-123595226D01*
X121740256Y-123517205D01*
X121909774Y-123403937D01*
X122053937Y-123259774D01*
X122167205Y-123090256D01*
X122245226Y-122901898D01*
X122285000Y-122701939D01*
X122285000Y-122498061D01*
X122245226Y-122298102D01*
X122167205Y-122109744D01*
X122053937Y-121940226D01*
X122026683Y-121912972D01*
X122033084Y-121804162D01*
X122038523Y-121742995D01*
X122033438Y-121695950D01*
X122031575Y-121648701D01*
X122025680Y-121624162D01*
X122022966Y-121599051D01*
X122008802Y-121553903D01*
X121997756Y-121507924D01*
X121987186Y-121485004D01*
X121979626Y-121460908D01*
X121956929Y-121419398D01*
X121937122Y-121376449D01*
X121922280Y-121356027D01*
X121910167Y-121333874D01*
X121879807Y-121297588D01*
X121852003Y-121259331D01*
X121833467Y-121242201D01*
X121817261Y-121222832D01*
X121780405Y-121193165D01*
X121745672Y-121161068D01*
X121693354Y-121129019D01*
X120282429Y-120205504D01*
X120284774Y-120203937D01*
X120428937Y-120059774D01*
X120542205Y-119890256D01*
X120620226Y-119701898D01*
X120660000Y-119501939D01*
X120660000Y-119298061D01*
X120620226Y-119098102D01*
X120542205Y-118909744D01*
X120535000Y-118898961D01*
X120535000Y-116828711D01*
X120603937Y-116759774D01*
X120717205Y-116590256D01*
X120795226Y-116401898D01*
X120835000Y-116201939D01*
X120835000Y-115998061D01*
X120795226Y-115798102D01*
X120717205Y-115609744D01*
X120603937Y-115440226D01*
X120459774Y-115296063D01*
X120290256Y-115182795D01*
X120101898Y-115104774D01*
X119901939Y-115065000D01*
X119698061Y-115065000D01*
X119498102Y-115104774D01*
X119310922Y-115182307D01*
X119330122Y-111649479D01*
X119368077Y-111665201D01*
X119568036Y-111704975D01*
X119771914Y-111704975D01*
X119971873Y-111665201D01*
X120160231Y-111587180D01*
X120329749Y-111473912D01*
X120403661Y-111400000D01*
X120523000Y-111400000D01*
X120523000Y-114150000D01*
X120525440Y-114174776D01*
X120532667Y-114198601D01*
X120544403Y-114220557D01*
X120560197Y-114239803D01*
X120579443Y-114255597D01*
X120601399Y-114267333D01*
X120625224Y-114274560D01*
X120650000Y-114277000D01*
X123300000Y-114277000D01*
X123324776Y-114274560D01*
X123348601Y-114267333D01*
X123370557Y-114255597D01*
X123389803Y-114239803D01*
X123405597Y-114220557D01*
X123417333Y-114198601D01*
X123424560Y-114174776D01*
X123427000Y-114150000D01*
X123427000Y-111400000D01*
X123424560Y-111375224D01*
X123417333Y-111351399D01*
X123405597Y-111329443D01*
X123389803Y-111310197D01*
X123370557Y-111294403D01*
X123348601Y-111282667D01*
X123324776Y-111275440D01*
X123300000Y-111273000D01*
X120650000Y-111273000D01*
X120625224Y-111275440D01*
X120601399Y-111282667D01*
X120579443Y-111294403D01*
X120560197Y-111310197D01*
X120544403Y-111329443D01*
X120532667Y-111351399D01*
X120525440Y-111375224D01*
X120523000Y-111400000D01*
X120403661Y-111400000D01*
X120473912Y-111329749D01*
X120587180Y-111160231D01*
X120659764Y-110984999D01*
X124690000Y-110984999D01*
X124690000Y-111051939D01*
X124729774Y-111251898D01*
X124807795Y-111440256D01*
X124921063Y-111609774D01*
X125065226Y-111753937D01*
X125190287Y-111837500D01*
X125065226Y-111921063D01*
X124921063Y-112065226D01*
X124807795Y-112234744D01*
X124729774Y-112423102D01*
X124690000Y-112623061D01*
X124690000Y-112826939D01*
X124729774Y-113026898D01*
X124807795Y-113215256D01*
X124882898Y-113327655D01*
X122805808Y-115404746D01*
X122777762Y-115427763D01*
X122685913Y-115539681D01*
X122617663Y-115667368D01*
X122596870Y-115735913D01*
X122575635Y-115805915D01*
X122561444Y-115950000D01*
X122565000Y-115986105D01*
X122565001Y-127668485D01*
X122409744Y-127732795D01*
X122240226Y-127846063D01*
X122096063Y-127990226D01*
X121982795Y-128159744D01*
X121904774Y-128348102D01*
X121865000Y-128548061D01*
X121865000Y-128751939D01*
X121904774Y-128951898D01*
X121982795Y-129140256D01*
X122096063Y-129309774D01*
X122240226Y-129453937D01*
X122409744Y-129567205D01*
X122598102Y-129645226D01*
X122798061Y-129685000D01*
X122951413Y-129685000D01*
X122954774Y-129701898D01*
X123032795Y-129890256D01*
X123146063Y-130059774D01*
X123290226Y-130203937D01*
X123459744Y-130317205D01*
X123648102Y-130395226D01*
X123848061Y-130435000D01*
X124051939Y-130435000D01*
X124251898Y-130395226D01*
X124440256Y-130317205D01*
X124609774Y-130203937D01*
X124753937Y-130059774D01*
X124867205Y-129890256D01*
X124945226Y-129701898D01*
X124985000Y-129501939D01*
X124985000Y-129298061D01*
X124945226Y-129098102D01*
X124867205Y-128909744D01*
X124753937Y-128740226D01*
X124685000Y-128671289D01*
X124685000Y-116404446D01*
X126919194Y-114170253D01*
X126947239Y-114147237D01*
X127039088Y-114035319D01*
X127107338Y-113907632D01*
X127141782Y-113794085D01*
X127149366Y-113769085D01*
X127154920Y-113712695D01*
X127173102Y-113720226D01*
X127373061Y-113760000D01*
X127576939Y-113760000D01*
X127776898Y-113720226D01*
X127920560Y-113660719D01*
X127932794Y-113690255D01*
X128046062Y-113859773D01*
X128115000Y-113928711D01*
X128115001Y-114369079D01*
X128111518Y-114410401D01*
X128119052Y-114477234D01*
X128125636Y-114544085D01*
X128127150Y-114549077D01*
X128127736Y-114554272D01*
X128148162Y-114618343D01*
X128167664Y-114682633D01*
X128170126Y-114687239D01*
X128171712Y-114692214D01*
X128204228Y-114751039D01*
X128235914Y-114810320D01*
X128239227Y-114814356D01*
X128241753Y-114818927D01*
X128285122Y-114870280D01*
X128327763Y-114922238D01*
X128359817Y-114948544D01*
X131715000Y-118210529D01*
X131715001Y-128498726D01*
X131534130Y-128615000D01*
X130878711Y-128615000D01*
X130809774Y-128546063D01*
X130640256Y-128432795D01*
X130451898Y-128354774D01*
X130251939Y-128315000D01*
X130048061Y-128315000D01*
X129848102Y-128354774D01*
X129659744Y-128432795D01*
X129490226Y-128546063D01*
X129346063Y-128690226D01*
X129232795Y-128859744D01*
X129154774Y-129048102D01*
X129115000Y-129248061D01*
X129115000Y-129351289D01*
X129109774Y-129346063D01*
X128940256Y-129232795D01*
X128751898Y-129154774D01*
X128551939Y-129115000D01*
X128348061Y-129115000D01*
X128148102Y-129154774D01*
X127959744Y-129232795D01*
X127790226Y-129346063D01*
X127646063Y-129490226D01*
X127532795Y-129659744D01*
X127454774Y-129848102D01*
X127415000Y-130048061D01*
X127415000Y-130251939D01*
X127427126Y-130312901D01*
X126578711Y-130312901D01*
X126509774Y-130243964D01*
X126340256Y-130130696D01*
X126151898Y-130052675D01*
X125951939Y-130012901D01*
X125748061Y-130012901D01*
X125548102Y-130052675D01*
X125359744Y-130130696D01*
X125190226Y-130243964D01*
X125046063Y-130388127D01*
X124932795Y-130557645D01*
X124854774Y-130746003D01*
X124815000Y-130945962D01*
X124815000Y-131149840D01*
X124854774Y-131349799D01*
X124932795Y-131538157D01*
X125046063Y-131707675D01*
X125190226Y-131851838D01*
X125359744Y-131965106D01*
X125548102Y-132043127D01*
X125748061Y-132082901D01*
X125951939Y-132082901D01*
X125954336Y-132082424D01*
X126018843Y-132238157D01*
X126132111Y-132407675D01*
X126276274Y-132551838D01*
X126445792Y-132665106D01*
X126634150Y-132743127D01*
X126834109Y-132782901D01*
X126931602Y-132782901D01*
X130838701Y-136690001D01*
X128030502Y-136690001D01*
X124121323Y-132780823D01*
X124098302Y-132752772D01*
X123986384Y-132660923D01*
X123858697Y-132592673D01*
X123720149Y-132550645D01*
X123612169Y-132540010D01*
X123576064Y-132536454D01*
X123539959Y-132540010D01*
X123134792Y-132540010D01*
X123139802Y-132535000D01*
X123201939Y-132535000D01*
X123401898Y-132495226D01*
X123590256Y-132417205D01*
X123759774Y-132303937D01*
X123903937Y-132159774D01*
X124017205Y-131990256D01*
X124095226Y-131801898D01*
X124135000Y-131601939D01*
X124135000Y-131398061D01*
X124095226Y-131198102D01*
X124017205Y-131009744D01*
X123903937Y-130840226D01*
X123759774Y-130696063D01*
X123590256Y-130582795D01*
X123401898Y-130504774D01*
X123201939Y-130465000D01*
X122998061Y-130465000D01*
X122798102Y-130504774D01*
X122609744Y-130582795D01*
X122440226Y-130696063D01*
X122296063Y-130840226D01*
X122182795Y-131009744D01*
X122104774Y-131198102D01*
X122065000Y-131398061D01*
X122065000Y-131460198D01*
X121435199Y-132090000D01*
X114964803Y-132090000D01*
X112485000Y-129610199D01*
X112485000Y-129548061D01*
X112445226Y-129348102D01*
X112367205Y-129159744D01*
X112253937Y-128990226D01*
X112109774Y-128846063D01*
X111940256Y-128732795D01*
X111751898Y-128654774D01*
X111551939Y-128615000D01*
X111348061Y-128615000D01*
X111148102Y-128654774D01*
X110959744Y-128732795D01*
X110790226Y-128846063D01*
X110646063Y-128990226D01*
X110532795Y-129159744D01*
X110454774Y-129348102D01*
X110450000Y-129372103D01*
X110445226Y-129348102D01*
X110367205Y-129159744D01*
X110253937Y-128990226D01*
X110109774Y-128846063D01*
X109940256Y-128732795D01*
X109751898Y-128654774D01*
X109551939Y-128615000D01*
X109348061Y-128615000D01*
X109148102Y-128654774D01*
X108959744Y-128732795D01*
X108790226Y-128846063D01*
X108646063Y-128990226D01*
X108532795Y-129159744D01*
X108454774Y-129348102D01*
X108415000Y-129548061D01*
X108415000Y-129751939D01*
X108454774Y-129951898D01*
X108532795Y-130140256D01*
X108646063Y-130309774D01*
X108790226Y-130453937D01*
X108959744Y-130567205D01*
X109148102Y-130645226D01*
X109348061Y-130685000D01*
X109445554Y-130685000D01*
X112529756Y-133769203D01*
X112552772Y-133797248D01*
X112664690Y-133889097D01*
X112792377Y-133957347D01*
X112930925Y-133999375D01*
X113038905Y-134010010D01*
X113038914Y-134010010D01*
X113075009Y-134013565D01*
X113111104Y-134010010D01*
X122576279Y-134010010D01*
X122496063Y-134090226D01*
X122382795Y-134259744D01*
X122304774Y-134448102D01*
X122265000Y-134648061D01*
X122265000Y-134851939D01*
X122304774Y-135051898D01*
X122382795Y-135240256D01*
X122496063Y-135409774D01*
X122640226Y-135553937D01*
X122809744Y-135667205D01*
X122998102Y-135745226D01*
X123198061Y-135785000D01*
X123401939Y-135785000D01*
X123601898Y-135745226D01*
X123790256Y-135667205D01*
X123906851Y-135589299D01*
X133504479Y-145186928D01*
X133185000Y-145186928D01*
X133060518Y-145199188D01*
X132940820Y-145235498D01*
X132830506Y-145294463D01*
X132733815Y-145373815D01*
X132654463Y-145470506D01*
X132595498Y-145580820D01*
X132559188Y-145700518D01*
X132546928Y-145825000D01*
X132546928Y-147175000D01*
X132559188Y-147299482D01*
X132595498Y-147419180D01*
X132654463Y-147529494D01*
X132733815Y-147626185D01*
X132820697Y-147697487D01*
X132699093Y-147879482D01*
X132600342Y-148117887D01*
X132550000Y-148370976D01*
X132550000Y-148629024D01*
X132600342Y-148882113D01*
X132699093Y-149120518D01*
X132842456Y-149335077D01*
X132847379Y-149340000D01*
X131432621Y-149340000D01*
X131437544Y-149335077D01*
X131580907Y-149120518D01*
X131679658Y-148882113D01*
X131730000Y-148629024D01*
X131730000Y-148370976D01*
X131679658Y-148117887D01*
X131580907Y-147879482D01*
X131459303Y-147697487D01*
X131546185Y-147626185D01*
X131625537Y-147529494D01*
X131684502Y-147419180D01*
X131720812Y-147299482D01*
X131733072Y-147175000D01*
X131733072Y-145825000D01*
X131720812Y-145700518D01*
X131684502Y-145580820D01*
X131625537Y-145470506D01*
X131546185Y-145373815D01*
X131449494Y-145294463D01*
X131339180Y-145235498D01*
X131219482Y-145199188D01*
X131095000Y-145186928D01*
X129745000Y-145186928D01*
X129620518Y-145199188D01*
X129500820Y-145235498D01*
X129390506Y-145294463D01*
X129293815Y-145373815D01*
X129214463Y-145470506D01*
X129155498Y-145580820D01*
X129119188Y-145700518D01*
X129106928Y-145825000D01*
X129106928Y-147175000D01*
X129119188Y-147299482D01*
X129155498Y-147419180D01*
X129214463Y-147529494D01*
X129293815Y-147626185D01*
X129380697Y-147697487D01*
X129259093Y-147879482D01*
X129160342Y-148117887D01*
X129110000Y-148370976D01*
X129110000Y-148629024D01*
X129160342Y-148882113D01*
X129259093Y-149120518D01*
X129402456Y-149335077D01*
X129407379Y-149340000D01*
X127992621Y-149340000D01*
X127997544Y-149335077D01*
X128140907Y-149120518D01*
X128239658Y-148882113D01*
X128290000Y-148629024D01*
X128290000Y-148370976D01*
X128239658Y-148117887D01*
X128140907Y-147879482D01*
X128019303Y-147697487D01*
X128106185Y-147626185D01*
X128185537Y-147529494D01*
X128244502Y-147419180D01*
X128280812Y-147299482D01*
X128293072Y-147175000D01*
X128293072Y-145825000D01*
X128280812Y-145700518D01*
X128244502Y-145580820D01*
X128185537Y-145470506D01*
X128106185Y-145373815D01*
X128009494Y-145294463D01*
X127899180Y-145235498D01*
X127779482Y-145199188D01*
X127655000Y-145186928D01*
X126305000Y-145186928D01*
X126180518Y-145199188D01*
X126060820Y-145235498D01*
X125950506Y-145294463D01*
X125853815Y-145373815D01*
X125774463Y-145470506D01*
X125715498Y-145580820D01*
X125679188Y-145700518D01*
X125666928Y-145825000D01*
X125666928Y-147175000D01*
X125679188Y-147299482D01*
X125715498Y-147419180D01*
X125774463Y-147529494D01*
X125853815Y-147626185D01*
X125940697Y-147697487D01*
X125819093Y-147879482D01*
X125720342Y-148117887D01*
X125670000Y-148370976D01*
X125670000Y-148629024D01*
X125720342Y-148882113D01*
X125819093Y-149120518D01*
X125962456Y-149335077D01*
X125967379Y-149340000D01*
X124552621Y-149340000D01*
X124557544Y-149335077D01*
X124700907Y-149120518D01*
X124799658Y-148882113D01*
X124850000Y-148629024D01*
X124850000Y-148370976D01*
X124799658Y-148117887D01*
X124700907Y-147879482D01*
X124579303Y-147697487D01*
X124666185Y-147626185D01*
X124745537Y-147529494D01*
X124804502Y-147419180D01*
X124840812Y-147299482D01*
X124853072Y-147175000D01*
X124853072Y-145825000D01*
X124840812Y-145700518D01*
X124804502Y-145580820D01*
X124745537Y-145470506D01*
X124666185Y-145373815D01*
X124569494Y-145294463D01*
X124459180Y-145235498D01*
X124339482Y-145199188D01*
X124215000Y-145186928D01*
X122865000Y-145186928D01*
X122740518Y-145199188D01*
X122620820Y-145235498D01*
X122510506Y-145294463D01*
X122413815Y-145373815D01*
X122334463Y-145470506D01*
X122275498Y-145580820D01*
X122239188Y-145700518D01*
X122226928Y-145825000D01*
X122226928Y-147175000D01*
X122239188Y-147299482D01*
X122275498Y-147419180D01*
X122334463Y-147529494D01*
X122413815Y-147626185D01*
X122500697Y-147697487D01*
X122379093Y-147879482D01*
X122280342Y-148117887D01*
X122230000Y-148370976D01*
X122230000Y-148629024D01*
X122280342Y-148882113D01*
X122379093Y-149120518D01*
X122522456Y-149335077D01*
X122527379Y-149340000D01*
X121388521Y-149340000D01*
X121400812Y-149299482D01*
X121413072Y-149175000D01*
X121413072Y-147825000D01*
X121400812Y-147700518D01*
X121364502Y-147580820D01*
X121305537Y-147470506D01*
X121226185Y-147373815D01*
X121132441Y-147296881D01*
X121229473Y-147163629D01*
X121337238Y-146930528D01*
X121367910Y-146829400D01*
X121244224Y-146627000D01*
X120227000Y-146627000D01*
X120227000Y-146647000D01*
X119973000Y-146647000D01*
X119973000Y-146627000D01*
X118955776Y-146627000D01*
X118832090Y-146829400D01*
X118862762Y-146930528D01*
X118970527Y-147163629D01*
X119067559Y-147296881D01*
X118973815Y-147373815D01*
X118894463Y-147470506D01*
X118835498Y-147580820D01*
X118799188Y-147700518D01*
X118786928Y-147825000D01*
X118786928Y-149175000D01*
X118799188Y-149299482D01*
X118811479Y-149340000D01*
X102032279Y-149340000D01*
X101740340Y-149311375D01*
X101490571Y-149235965D01*
X101260206Y-149113477D01*
X101058021Y-148948579D01*
X100891712Y-148747546D01*
X100767622Y-148518046D01*
X100690469Y-148268805D01*
X100660000Y-147978911D01*
X100660000Y-146170600D01*
X118832090Y-146170600D01*
X118955776Y-146373000D01*
X119973000Y-146373000D01*
X119973000Y-145354915D01*
X120227000Y-145354915D01*
X120227000Y-146373000D01*
X121244224Y-146373000D01*
X121367910Y-146170600D01*
X121337238Y-146069472D01*
X121229473Y-145836371D01*
X121078303Y-145628773D01*
X120889537Y-145454656D01*
X120670430Y-145320711D01*
X120429401Y-145232085D01*
X120227000Y-145354915D01*
X119973000Y-145354915D01*
X119770599Y-145232085D01*
X119529570Y-145320711D01*
X119310463Y-145454656D01*
X119121697Y-145628773D01*
X118970527Y-145836371D01*
X118862762Y-146069472D01*
X118832090Y-146170600D01*
X100660000Y-146170600D01*
X100660000Y-124632279D01*
X100669580Y-124534576D01*
X100688580Y-124471644D01*
X100719445Y-124413595D01*
X100760989Y-124362657D01*
X100811644Y-124320752D01*
X100869471Y-124289485D01*
X100932272Y-124270044D01*
X100998687Y-124263064D01*
X101000000Y-124263193D01*
X101129383Y-124250450D01*
X101253793Y-124212710D01*
X101368450Y-124151425D01*
X101468948Y-124068948D01*
X101551425Y-123968450D01*
X101612710Y-123853793D01*
X101650450Y-123729383D01*
X101660000Y-123632419D01*
X101660000Y-102967581D01*
X101650450Y-102870617D01*
X101612710Y-102746207D01*
X101551425Y-102631550D01*
X101468948Y-102531052D01*
X101368449Y-102448575D01*
X101253792Y-102387290D01*
X101129382Y-102349550D01*
X101064455Y-102343155D01*
X101064405Y-102343150D01*
X101063651Y-102343076D01*
X101000000Y-102336807D01*
X100999858Y-102336821D01*
X100934576Y-102330420D01*
X100871643Y-102311420D01*
X100813594Y-102280554D01*
X100762657Y-102239011D01*
X100720752Y-102188356D01*
X100689485Y-102130529D01*
X100670044Y-102067728D01*
X100663050Y-102001178D01*
X100688625Y-101740341D01*
X100764035Y-101490571D01*
X100886522Y-101260208D01*
X101051422Y-101058020D01*
X101252450Y-100891714D01*
X101481954Y-100767622D01*
X101731195Y-100690469D01*
X102021088Y-100660000D01*
X135240001Y-100660000D01*
X135240000Y-109467581D01*
G37*
X135240000Y-109467581D02*
X135236807Y-109500000D01*
X135249550Y-109629383D01*
X135287290Y-109753793D01*
X135348575Y-109868450D01*
X135395506Y-109925635D01*
X135431052Y-109968948D01*
X135531550Y-110051425D01*
X135646207Y-110112710D01*
X135770617Y-110150450D01*
X135900000Y-110163193D01*
X135932419Y-110160000D01*
X139340000Y-110160000D01*
X139340000Y-112505083D01*
X139339537Y-112504656D01*
X139120430Y-112370711D01*
X138879401Y-112282085D01*
X138677000Y-112404915D01*
X138677000Y-113423000D01*
X138697000Y-113423000D01*
X138697000Y-113677000D01*
X138677000Y-113677000D01*
X138677000Y-113697000D01*
X138423000Y-113697000D01*
X138423000Y-113677000D01*
X137405776Y-113677000D01*
X137282090Y-113879400D01*
X137312762Y-113980528D01*
X137420527Y-114213629D01*
X137571697Y-114421227D01*
X137704060Y-114543319D01*
X137532456Y-114714923D01*
X137465587Y-114815000D01*
X136286094Y-114815000D01*
X136249999Y-114811445D01*
X136213904Y-114815000D01*
X136213895Y-114815000D01*
X136105915Y-114825635D01*
X135967367Y-114867663D01*
X135839680Y-114935913D01*
X135727762Y-115027762D01*
X135704746Y-115055807D01*
X135151884Y-115608670D01*
X135141418Y-115590812D01*
X135114087Y-115539680D01*
X135104864Y-115528442D01*
X135097516Y-115515904D01*
X135059007Y-115472566D01*
X135022237Y-115427762D01*
X134983038Y-115395592D01*
X132630283Y-113220600D01*
X137282090Y-113220600D01*
X137405776Y-113423000D01*
X138423000Y-113423000D01*
X138423000Y-112404915D01*
X138220599Y-112282085D01*
X137979570Y-112370711D01*
X137760463Y-112504656D01*
X137571697Y-112678773D01*
X137420527Y-112886371D01*
X137312762Y-113119472D01*
X137282090Y-113220600D01*
X132630283Y-113220600D01*
X127600605Y-108570943D01*
X127744976Y-108519276D01*
X127932764Y-108397369D01*
X128093161Y-108241169D01*
X128220003Y-108056678D01*
X128308415Y-107850987D01*
X128355000Y-107632000D01*
X128355000Y-107082000D01*
X127347000Y-107082000D01*
X127347000Y-107102000D01*
X127093000Y-107102000D01*
X127093000Y-107082000D01*
X127073000Y-107082000D01*
X127073000Y-106828000D01*
X127093000Y-106828000D01*
X127093000Y-105437046D01*
X127347000Y-105437046D01*
X127347000Y-106828000D01*
X128355000Y-106828000D01*
X128355000Y-106278000D01*
X128308415Y-106059013D01*
X128220003Y-105853322D01*
X128093161Y-105668831D01*
X127932764Y-105512631D01*
X127744976Y-105390724D01*
X127521874Y-105310881D01*
X127347000Y-105437046D01*
X127093000Y-105437046D01*
X126918126Y-105310881D01*
X126695024Y-105390724D01*
X126507236Y-105512631D01*
X126346839Y-105668831D01*
X126345117Y-105671335D01*
X126244731Y-105604259D01*
X126070022Y-105531892D01*
X125884552Y-105495000D01*
X125695448Y-105495000D01*
X125509978Y-105531892D01*
X125335269Y-105604259D01*
X125178036Y-105709319D01*
X125044319Y-105843036D01*
X124939259Y-106000269D01*
X124906189Y-106080106D01*
X124285000Y-105505851D01*
X124285000Y-105448061D01*
X124245226Y-105248102D01*
X124167205Y-105059744D01*
X124053937Y-104890226D01*
X123909774Y-104746063D01*
X123740256Y-104632795D01*
X123551898Y-104554774D01*
X123351939Y-104515000D01*
X123148061Y-104515000D01*
X122948102Y-104554774D01*
X122759744Y-104632795D01*
X122700000Y-104672715D01*
X122640256Y-104632795D01*
X122451898Y-104554774D01*
X122251939Y-104515000D01*
X122048061Y-104515000D01*
X121848102Y-104554774D01*
X121659744Y-104632795D01*
X121490226Y-104746063D01*
X121346063Y-104890226D01*
X121232795Y-105059744D01*
X121154774Y-105248102D01*
X121115000Y-105448061D01*
X121115000Y-105651939D01*
X121154774Y-105851898D01*
X121232795Y-106040256D01*
X121346063Y-106209774D01*
X121490226Y-106353937D01*
X121659744Y-106467205D01*
X121848102Y-106545226D01*
X122048061Y-106585000D01*
X122177932Y-106585000D01*
X122221643Y-106626088D01*
X122222867Y-106627475D01*
X122247839Y-106650713D01*
X122272898Y-106674268D01*
X122274375Y-106675406D01*
X123924949Y-108211340D01*
X123848056Y-108288233D01*
X123690256Y-108182795D01*
X123501898Y-108104774D01*
X123301939Y-108065000D01*
X123098061Y-108065000D01*
X122898102Y-108104774D01*
X122709744Y-108182795D01*
X122540226Y-108296063D01*
X122471289Y-108365000D01*
X119536094Y-108365000D01*
X119499999Y-108361445D01*
X119463904Y-108365000D01*
X119463895Y-108365000D01*
X119355915Y-108375635D01*
X119296608Y-108393626D01*
X119453161Y-108241169D01*
X119580003Y-108056678D01*
X119668415Y-107850987D01*
X119715000Y-107632000D01*
X119715000Y-107371904D01*
X119729978Y-107378108D01*
X119915448Y-107415000D01*
X120104552Y-107415000D01*
X120290022Y-107378108D01*
X120464731Y-107305741D01*
X120621964Y-107200681D01*
X120755681Y-107066964D01*
X120860741Y-106909731D01*
X120933108Y-106735022D01*
X120970000Y-106549552D01*
X120970000Y-106360448D01*
X120933108Y-106174978D01*
X120860741Y-106000269D01*
X120755681Y-105843036D01*
X120621964Y-105709319D01*
X120464731Y-105604259D01*
X120290022Y-105531892D01*
X120104552Y-105495000D01*
X119915448Y-105495000D01*
X119729978Y-105531892D01*
X119555269Y-105604259D01*
X119454883Y-105671335D01*
X119453161Y-105668831D01*
X119292764Y-105512631D01*
X119104976Y-105390724D01*
X118881874Y-105310881D01*
X118707000Y-105437046D01*
X118707000Y-106828000D01*
X118727000Y-106828000D01*
X118727000Y-107082000D01*
X118707000Y-107082000D01*
X118707000Y-108472954D01*
X118881874Y-108599119D01*
X119005763Y-108554782D01*
X118977762Y-108577762D01*
X118954746Y-108605807D01*
X117505808Y-110054746D01*
X117477762Y-110077763D01*
X117385913Y-110189681D01*
X117317663Y-110317368D01*
X117291157Y-110404747D01*
X117275635Y-110455915D01*
X117261444Y-110600000D01*
X117265000Y-110636105D01*
X117265001Y-115909855D01*
X113785000Y-112429855D01*
X113785000Y-111836327D01*
X113823942Y-111815512D01*
X113925000Y-111732575D01*
X114026058Y-111815512D01*
X114177433Y-111896423D01*
X114341684Y-111946248D01*
X114512500Y-111963072D01*
X115087500Y-111963072D01*
X115258316Y-111946248D01*
X115422567Y-111896423D01*
X115573942Y-111815512D01*
X115706623Y-111706623D01*
X115815512Y-111573942D01*
X115896423Y-111422567D01*
X115946248Y-111258316D01*
X115963072Y-111087500D01*
X115963072Y-110612500D01*
X115946248Y-110441684D01*
X115896423Y-110277433D01*
X115815512Y-110126058D01*
X115706623Y-109993377D01*
X115573942Y-109884488D01*
X115422567Y-109803577D01*
X115258316Y-109753752D01*
X115087500Y-109736928D01*
X114926375Y-109736928D01*
X114345258Y-109155812D01*
X114322238Y-109127762D01*
X114210320Y-109035913D01*
X114082633Y-108967663D01*
X113944085Y-108925635D01*
X113836105Y-108915000D01*
X113800000Y-108911444D01*
X113763895Y-108915000D01*
X110736105Y-108915000D01*
X110700000Y-108911444D01*
X110663895Y-108915000D01*
X110576826Y-108923576D01*
X110476250Y-108823000D01*
X110470709Y-108823000D01*
X110447227Y-108794891D01*
X110391542Y-108750000D01*
X110447227Y-108705109D01*
X110470709Y-108677000D01*
X110476250Y-108677000D01*
X110635000Y-108518250D01*
X110624701Y-108420057D01*
X110618425Y-108400000D01*
X110624701Y-108379943D01*
X110635000Y-108281750D01*
X110476250Y-108123000D01*
X110470709Y-108123000D01*
X110447227Y-108094891D01*
X110391542Y-108050000D01*
X110447227Y-108005109D01*
X110470709Y-107977000D01*
X110476250Y-107977000D01*
X110635000Y-107818250D01*
X110624701Y-107720057D01*
X110618425Y-107700000D01*
X110624701Y-107679943D01*
X110635000Y-107581750D01*
X110476250Y-107423000D01*
X110470709Y-107423000D01*
X110447227Y-107394891D01*
X110391542Y-107350000D01*
X110447227Y-107305109D01*
X110470709Y-107277000D01*
X110476250Y-107277000D01*
X110635000Y-107118250D01*
X110624701Y-107020057D01*
X110618425Y-107000000D01*
X110624701Y-106979943D01*
X110635000Y-106881750D01*
X110530252Y-106777002D01*
X110635000Y-106777002D01*
X110635000Y-106685000D01*
X111820554Y-106685000D01*
X111944130Y-106808576D01*
X111903752Y-106941684D01*
X111886928Y-107112500D01*
X111886928Y-107587500D01*
X111903752Y-107758316D01*
X111953577Y-107922567D01*
X112034488Y-108073942D01*
X112143377Y-108206623D01*
X112276058Y-108315512D01*
X112427433Y-108396423D01*
X112591684Y-108446248D01*
X112762500Y-108463072D01*
X113337500Y-108463072D01*
X113508316Y-108446248D01*
X113672567Y-108396423D01*
X113823942Y-108315512D01*
X113847839Y-108295901D01*
X113920506Y-108355537D01*
X114030820Y-108414502D01*
X114150518Y-108450812D01*
X114275000Y-108463072D01*
X114514250Y-108460000D01*
X114673000Y-108301250D01*
X114673000Y-107477000D01*
X114927000Y-107477000D01*
X114927000Y-108301250D01*
X115085750Y-108460000D01*
X115325000Y-108463072D01*
X115449482Y-108450812D01*
X115569180Y-108414502D01*
X115679494Y-108355537D01*
X115776185Y-108276185D01*
X115855537Y-108179494D01*
X115914502Y-108069180D01*
X115950812Y-107949482D01*
X115963072Y-107825000D01*
X115960000Y-107635750D01*
X115801250Y-107477000D01*
X114927000Y-107477000D01*
X114673000Y-107477000D01*
X114653000Y-107477000D01*
X114653000Y-107223000D01*
X114673000Y-107223000D01*
X114673000Y-106398750D01*
X114574250Y-106300000D01*
X114673000Y-106201250D01*
X114673000Y-105377000D01*
X114927000Y-105377000D01*
X114927000Y-106201250D01*
X115025750Y-106300000D01*
X114927000Y-106398750D01*
X114927000Y-107223000D01*
X115801250Y-107223000D01*
X115942250Y-107082000D01*
X117445000Y-107082000D01*
X117445000Y-107632000D01*
X117491585Y-107850987D01*
X117579997Y-108056678D01*
X117706839Y-108241169D01*
X117867236Y-108397369D01*
X118055024Y-108519276D01*
X118278126Y-108599119D01*
X118453000Y-108472954D01*
X118453000Y-107082000D01*
X117445000Y-107082000D01*
X115942250Y-107082000D01*
X115960000Y-107064250D01*
X115963072Y-106875000D01*
X115950812Y-106750518D01*
X115914502Y-106630820D01*
X115855537Y-106520506D01*
X115776185Y-106423815D01*
X115679494Y-106344463D01*
X115596311Y-106300000D01*
X115637469Y-106278000D01*
X117445000Y-106278000D01*
X117445000Y-106828000D01*
X118453000Y-106828000D01*
X118453000Y-105437046D01*
X118278126Y-105310881D01*
X118055024Y-105390724D01*
X117867236Y-105512631D01*
X117706839Y-105668831D01*
X117579997Y-105853322D01*
X117491585Y-106059013D01*
X117445000Y-106278000D01*
X115637469Y-106278000D01*
X115679494Y-106255537D01*
X115776185Y-106176185D01*
X115855537Y-106079494D01*
X115914502Y-105969180D01*
X115950812Y-105849482D01*
X115963072Y-105725000D01*
X115960000Y-105535750D01*
X115801250Y-105377000D01*
X114927000Y-105377000D01*
X114673000Y-105377000D01*
X114653000Y-105377000D01*
X114653000Y-105123000D01*
X114673000Y-105123000D01*
X114673000Y-103677000D01*
X114927000Y-103677000D01*
X114927000Y-105123000D01*
X115801250Y-105123000D01*
X115960000Y-104964250D01*
X115963072Y-104775000D01*
X115950812Y-104650518D01*
X115914502Y-104530820D01*
X115855537Y-104420506D01*
X115838708Y-104400000D01*
X115855537Y-104379494D01*
X115914502Y-104269180D01*
X115950812Y-104149482D01*
X115963072Y-104025000D01*
X115960000Y-103835750D01*
X115801250Y-103677000D01*
X114927000Y-103677000D01*
X114673000Y-103677000D01*
X114653000Y-103677000D01*
X114653000Y-103423000D01*
X114673000Y-103423000D01*
X114673000Y-102598750D01*
X114927000Y-102598750D01*
X114927000Y-103423000D01*
X115801250Y-103423000D01*
X115960000Y-103264250D01*
X115963072Y-103075000D01*
X115950812Y-102950518D01*
X115936095Y-102902000D01*
X117445000Y-102902000D01*
X117445000Y-103202000D01*
X117491585Y-103420987D01*
X117579997Y-103626678D01*
X117706839Y-103811169D01*
X117867236Y-103967369D01*
X118055024Y-104089276D01*
X118278126Y-104169119D01*
X118453000Y-104042954D01*
X118453000Y-102902000D01*
X118707000Y-102902000D01*
X118707000Y-104042954D01*
X118881874Y-104169119D01*
X119104976Y-104089276D01*
X119292764Y-103967369D01*
X119453161Y-103811169D01*
X119580003Y-103626678D01*
X119668415Y-103420987D01*
X119715000Y-103202000D01*
X119715000Y-102902000D01*
X126085000Y-102902000D01*
X126085000Y-103202000D01*
X126131585Y-103420987D01*
X126219997Y-103626678D01*
X126346839Y-103811169D01*
X126507236Y-103967369D01*
X126695024Y-104089276D01*
X126918126Y-104169119D01*
X127093000Y-104042954D01*
X127093000Y-102902000D01*
X127347000Y-102902000D01*
X127347000Y-104042954D01*
X127521874Y-104169119D01*
X127744976Y-104089276D01*
X127932764Y-103967369D01*
X128093161Y-103811169D01*
X128220003Y-103626678D01*
X128308415Y-103420987D01*
X128355000Y-103202000D01*
X128355000Y-102902000D01*
X127347000Y-102902000D01*
X127093000Y-102902000D01*
X126085000Y-102902000D01*
X119715000Y-102902000D01*
X118707000Y-102902000D01*
X118453000Y-102902000D01*
X117445000Y-102902000D01*
X115936095Y-102902000D01*
X115914502Y-102830820D01*
X115855537Y-102720506D01*
X115776185Y-102623815D01*
X115679494Y-102544463D01*
X115569180Y-102485498D01*
X115449482Y-102449188D01*
X115325000Y-102436928D01*
X115085750Y-102440000D01*
X114927000Y-102598750D01*
X114673000Y-102598750D01*
X114514250Y-102440000D01*
X114275000Y-102436928D01*
X114150518Y-102449188D01*
X114030820Y-102485498D01*
X113920506Y-102544463D01*
X113847839Y-102604099D01*
X113823942Y-102584488D01*
X113672567Y-102503577D01*
X113508316Y-102453752D01*
X113337500Y-102436928D01*
X112762500Y-102436928D01*
X112591684Y-102453752D01*
X112427433Y-102503577D01*
X112276058Y-102584488D01*
X112143377Y-102693377D01*
X112034488Y-102826058D01*
X111953577Y-102977433D01*
X111903752Y-103141684D01*
X111886928Y-103312500D01*
X111886928Y-103673626D01*
X111745554Y-103815000D01*
X110635000Y-103815000D01*
X110635000Y-103722998D01*
X110530252Y-103722998D01*
X110635000Y-103618250D01*
X110624701Y-103520057D01*
X110618425Y-103500000D01*
X110624701Y-103479943D01*
X110635000Y-103381750D01*
X110476250Y-103223000D01*
X110470709Y-103223000D01*
X110447227Y-103194891D01*
X110349846Y-103116387D01*
X110274585Y-103077000D01*
X110476250Y-103077000D01*
X110635000Y-102918250D01*
X110624701Y-102820057D01*
X110587346Y-102700681D01*
X110527421Y-102590886D01*
X110447227Y-102494891D01*
X110349846Y-102416387D01*
X110239021Y-102358388D01*
X110203668Y-102348000D01*
X117445000Y-102348000D01*
X117445000Y-102648000D01*
X118453000Y-102648000D01*
X118453000Y-101507046D01*
X118707000Y-101507046D01*
X118707000Y-102648000D01*
X119715000Y-102648000D01*
X119715000Y-102348000D01*
X126085000Y-102348000D01*
X126085000Y-102648000D01*
X127093000Y-102648000D01*
X127093000Y-101507046D01*
X127347000Y-101507046D01*
X127347000Y-102648000D01*
X128355000Y-102648000D01*
X128355000Y-102348000D01*
X128308415Y-102129013D01*
X128220003Y-101923322D01*
X128093161Y-101738831D01*
X127932764Y-101582631D01*
X127744976Y-101460724D01*
X127521874Y-101380881D01*
X127347000Y-101507046D01*
X127093000Y-101507046D01*
X126918126Y-101380881D01*
X126695024Y-101460724D01*
X126507236Y-101582631D01*
X126346839Y-101738831D01*
X126219997Y-101923322D01*
X126131585Y-102129013D01*
X126085000Y-102348000D01*
X119715000Y-102348000D01*
X119668415Y-102129013D01*
X119580003Y-101923322D01*
X119453161Y-101738831D01*
X119292764Y-101582631D01*
X119104976Y-101460724D01*
X118881874Y-101380881D01*
X118707000Y-101507046D01*
X118453000Y-101507046D01*
X118278126Y-101380881D01*
X118055024Y-101460724D01*
X117867236Y-101582631D01*
X117706839Y-101738831D01*
X117579997Y-101923322D01*
X117491585Y-102129013D01*
X117445000Y-102348000D01*
X110203668Y-102348000D01*
X110119011Y-102323125D01*
X109994427Y-102311952D01*
X108785750Y-102315000D01*
X108627000Y-102473750D01*
X108627000Y-103077000D01*
X108723750Y-103077000D01*
X108627000Y-103173750D01*
X108627000Y-103297000D01*
X108373000Y-103297000D01*
X108373000Y-103173750D01*
X108276250Y-103077000D01*
X108373000Y-103077000D01*
X108373000Y-102473750D01*
X108214250Y-102315000D01*
X107005573Y-102311952D01*
X106880989Y-102323125D01*
X106760979Y-102358388D01*
X106650154Y-102416387D01*
X106552773Y-102494891D01*
X106472579Y-102590886D01*
X106412654Y-102700681D01*
X106375299Y-102820057D01*
X106365000Y-102918250D01*
X106523750Y-103077000D01*
X106725415Y-103077000D01*
X106650154Y-103116387D01*
X106552773Y-103194891D01*
X106529291Y-103223000D01*
X106523750Y-103223000D01*
X106365000Y-103381750D01*
X106375299Y-103479943D01*
X106381575Y-103500000D01*
X106375299Y-103520057D01*
X106365000Y-103618250D01*
X106523750Y-103777000D01*
X106529291Y-103777000D01*
X106552773Y-103805109D01*
X106608377Y-103849934D01*
X106548815Y-103898815D01*
X106528967Y-103923000D01*
X106523750Y-103923000D01*
X106365000Y-104081750D01*
X106375299Y-104179943D01*
X106381755Y-104200574D01*
X106374188Y-104225518D01*
X106361928Y-104350000D01*
X106361928Y-104750000D01*
X106374188Y-104874482D01*
X106381929Y-104900000D01*
X106374188Y-104925518D01*
X106361928Y-105050000D01*
X106361928Y-105450000D01*
X106374188Y-105574482D01*
X106381929Y-105600000D01*
X106374188Y-105625518D01*
X106361928Y-105750000D01*
X106361928Y-106150000D01*
X106374188Y-106274482D01*
X106381755Y-106299426D01*
X106375299Y-106320057D01*
X106365000Y-106418250D01*
X106523750Y-106577000D01*
X106528967Y-106577000D01*
X106548815Y-106601185D01*
X106608377Y-106650066D01*
X106552773Y-106694891D01*
X106529291Y-106723000D01*
X106523750Y-106723000D01*
X106365000Y-106881750D01*
X106375299Y-106979943D01*
X106381575Y-107000000D01*
X106375299Y-107020057D01*
X106365000Y-107118250D01*
X106523750Y-107277000D01*
X106529291Y-107277000D01*
X106552773Y-107305109D01*
X106608458Y-107350000D01*
X106552773Y-107394891D01*
X106529291Y-107423000D01*
X106523750Y-107423000D01*
X106365000Y-107581750D01*
X106375299Y-107679943D01*
X106381575Y-107700000D01*
X106375299Y-107720057D01*
X106365000Y-107818250D01*
X106523750Y-107977000D01*
X106529291Y-107977000D01*
X106552773Y-108005109D01*
X106608458Y-108050000D01*
X106552773Y-108094891D01*
X106529291Y-108123000D01*
X106523750Y-108123000D01*
X106365000Y-108281750D01*
X106375299Y-108379943D01*
X106381575Y-108400000D01*
X106375299Y-108420057D01*
X106365000Y-108518250D01*
X106523750Y-108677000D01*
X106529291Y-108677000D01*
X106552773Y-108705109D01*
X106608458Y-108750000D01*
X106552773Y-108794891D01*
X106529291Y-108823000D01*
X106523750Y-108823000D01*
X106365000Y-108981750D01*
X106375299Y-109079943D01*
X106381575Y-109100000D01*
X106375299Y-109120057D01*
X106365000Y-109218250D01*
X106523750Y-109377000D01*
X106529291Y-109377000D01*
X106552773Y-109405109D01*
X106608377Y-109449934D01*
X106548815Y-109498815D01*
X106528967Y-109523000D01*
X106523750Y-109523000D01*
X106365000Y-109681750D01*
X106375299Y-109779943D01*
X106381755Y-109800574D01*
X106374188Y-109825518D01*
X106361928Y-109950000D01*
X106361928Y-110350000D01*
X106374188Y-110474482D01*
X106381929Y-110500000D01*
X106374188Y-110525518D01*
X106361928Y-110650000D01*
X106361928Y-111050000D01*
X106374188Y-111174482D01*
X106381929Y-111200000D01*
X106374188Y-111225518D01*
X106361928Y-111350000D01*
X106361928Y-111750000D01*
X106374188Y-111874482D01*
X106381755Y-111899426D01*
X106375299Y-111920057D01*
X106365000Y-112018250D01*
X106523750Y-112177000D01*
X106528967Y-112177000D01*
X106548815Y-112201185D01*
X106608377Y-112250066D01*
X106552773Y-112294891D01*
X106529291Y-112323000D01*
X106523750Y-112323000D01*
X106365000Y-112481750D01*
X106375299Y-112579943D01*
X106381575Y-112600000D01*
X106375299Y-112620057D01*
X106365000Y-112718250D01*
X106469748Y-112822998D01*
X106365000Y-112822998D01*
X106365000Y-112915000D01*
X105836094Y-112915000D01*
X105799999Y-112911445D01*
X105763904Y-112915000D01*
X105763895Y-112915000D01*
X105655915Y-112925635D01*
X105517367Y-112967663D01*
X105389680Y-113035913D01*
X105277762Y-113127762D01*
X105254746Y-113155807D01*
X103655808Y-114754746D01*
X103627762Y-114777763D01*
X103535913Y-114889681D01*
X103467663Y-115017368D01*
X103456003Y-115055807D01*
X103425635Y-115155915D01*
X103411444Y-115300000D01*
X103415000Y-115336105D01*
X103415001Y-124413885D01*
X103411444Y-124450000D01*
X103425635Y-124594085D01*
X103464961Y-124723723D01*
X103467664Y-124732633D01*
X103535914Y-124860320D01*
X103627763Y-124972238D01*
X103655808Y-124995254D01*
X105704746Y-127044193D01*
X105727762Y-127072238D01*
X105839680Y-127164087D01*
X105967367Y-127232337D01*
X106105915Y-127274365D01*
X106213895Y-127285000D01*
X106213904Y-127285000D01*
X106249999Y-127288555D01*
X106286094Y-127285000D01*
X115545554Y-127285000D01*
X118215000Y-129954447D01*
X118215000Y-130051939D01*
X118254774Y-130251898D01*
X118332795Y-130440256D01*
X118446063Y-130609774D01*
X118590226Y-130753937D01*
X118759744Y-130867205D01*
X118948102Y-130945226D01*
X119148061Y-130985000D01*
X119351939Y-130985000D01*
X119551898Y-130945226D01*
X119740256Y-130867205D01*
X119909774Y-130753937D01*
X120053937Y-130609774D01*
X120167205Y-130440256D01*
X120245226Y-130251898D01*
X120285000Y-130051939D01*
X120285000Y-129848061D01*
X120254403Y-129694236D01*
X120413540Y-129587904D01*
X120557703Y-129443741D01*
X120670971Y-129274223D01*
X120748992Y-129085865D01*
X120788766Y-128885906D01*
X120788766Y-128682028D01*
X120748992Y-128482069D01*
X120670971Y-128293711D01*
X120596189Y-128181791D01*
X120665117Y-128015385D01*
X120704891Y-127815426D01*
X120704891Y-127611548D01*
X120665117Y-127411589D01*
X120632021Y-127331690D01*
X120753937Y-127209774D01*
X120867205Y-127040256D01*
X120945226Y-126851898D01*
X120985000Y-126651939D01*
X120985000Y-126448061D01*
X120945226Y-126248102D01*
X120867205Y-126059744D01*
X120753937Y-125890226D01*
X120685000Y-125821289D01*
X120685000Y-125750103D01*
X120688556Y-125713998D01*
X120674365Y-125569913D01*
X120632337Y-125431364D01*
X120564087Y-125303678D01*
X120508673Y-125236156D01*
X120472238Y-125191760D01*
X120444193Y-125168744D01*
X117835000Y-122559552D01*
X117835000Y-121379049D01*
X118749422Y-122009686D01*
X118782795Y-122090256D01*
X118896063Y-122259774D01*
X119040226Y-122403937D01*
X119209744Y-122517205D01*
X119398102Y-122595226D01*
X119598061Y-122635000D01*
X119801939Y-122635000D01*
X120001898Y-122595226D01*
X120190256Y-122517205D01*
X120215000Y-122500672D01*
X120215000Y-122701939D01*
X120254774Y-122901898D01*
X120332795Y-123090256D01*
X120446063Y-123259774D01*
X120590226Y-123403937D01*
X120759744Y-123517205D01*
X120948102Y-123595226D01*
X121148061Y-123635000D01*
X121351939Y-123635000D01*
X121551898Y-123595226D01*
X121740256Y-123517205D01*
X121909774Y-123403937D01*
X122053937Y-123259774D01*
X122167205Y-123090256D01*
X122245226Y-122901898D01*
X122285000Y-122701939D01*
X122285000Y-122498061D01*
X122245226Y-122298102D01*
X122167205Y-122109744D01*
X122053937Y-121940226D01*
X122026683Y-121912972D01*
X122033084Y-121804162D01*
X122038523Y-121742995D01*
X122033438Y-121695950D01*
X122031575Y-121648701D01*
X122025680Y-121624162D01*
X122022966Y-121599051D01*
X122008802Y-121553903D01*
X121997756Y-121507924D01*
X121987186Y-121485004D01*
X121979626Y-121460908D01*
X121956929Y-121419398D01*
X121937122Y-121376449D01*
X121922280Y-121356027D01*
X121910167Y-121333874D01*
X121879807Y-121297588D01*
X121852003Y-121259331D01*
X121833467Y-121242201D01*
X121817261Y-121222832D01*
X121780405Y-121193165D01*
X121745672Y-121161068D01*
X121693354Y-121129019D01*
X120282429Y-120205504D01*
X120284774Y-120203937D01*
X120428937Y-120059774D01*
X120542205Y-119890256D01*
X120620226Y-119701898D01*
X120660000Y-119501939D01*
X120660000Y-119298061D01*
X120620226Y-119098102D01*
X120542205Y-118909744D01*
X120535000Y-118898961D01*
X120535000Y-116828711D01*
X120603937Y-116759774D01*
X120717205Y-116590256D01*
X120795226Y-116401898D01*
X120835000Y-116201939D01*
X120835000Y-115998061D01*
X120795226Y-115798102D01*
X120717205Y-115609744D01*
X120603937Y-115440226D01*
X120459774Y-115296063D01*
X120290256Y-115182795D01*
X120101898Y-115104774D01*
X119901939Y-115065000D01*
X119698061Y-115065000D01*
X119498102Y-115104774D01*
X119310922Y-115182307D01*
X119330122Y-111649479D01*
X119368077Y-111665201D01*
X119568036Y-111704975D01*
X119771914Y-111704975D01*
X119971873Y-111665201D01*
X120160231Y-111587180D01*
X120329749Y-111473912D01*
X120403661Y-111400000D01*
X120523000Y-111400000D01*
X120523000Y-114150000D01*
X120525440Y-114174776D01*
X120532667Y-114198601D01*
X120544403Y-114220557D01*
X120560197Y-114239803D01*
X120579443Y-114255597D01*
X120601399Y-114267333D01*
X120625224Y-114274560D01*
X120650000Y-114277000D01*
X123300000Y-114277000D01*
X123324776Y-114274560D01*
X123348601Y-114267333D01*
X123370557Y-114255597D01*
X123389803Y-114239803D01*
X123405597Y-114220557D01*
X123417333Y-114198601D01*
X123424560Y-114174776D01*
X123427000Y-114150000D01*
X123427000Y-111400000D01*
X123424560Y-111375224D01*
X123417333Y-111351399D01*
X123405597Y-111329443D01*
X123389803Y-111310197D01*
X123370557Y-111294403D01*
X123348601Y-111282667D01*
X123324776Y-111275440D01*
X123300000Y-111273000D01*
X120650000Y-111273000D01*
X120625224Y-111275440D01*
X120601399Y-111282667D01*
X120579443Y-111294403D01*
X120560197Y-111310197D01*
X120544403Y-111329443D01*
X120532667Y-111351399D01*
X120525440Y-111375224D01*
X120523000Y-111400000D01*
X120403661Y-111400000D01*
X120473912Y-111329749D01*
X120587180Y-111160231D01*
X120659764Y-110984999D01*
X124690000Y-110984999D01*
X124690000Y-111051939D01*
X124729774Y-111251898D01*
X124807795Y-111440256D01*
X124921063Y-111609774D01*
X125065226Y-111753937D01*
X125190287Y-111837500D01*
X125065226Y-111921063D01*
X124921063Y-112065226D01*
X124807795Y-112234744D01*
X124729774Y-112423102D01*
X124690000Y-112623061D01*
X124690000Y-112826939D01*
X124729774Y-113026898D01*
X124807795Y-113215256D01*
X124882898Y-113327655D01*
X122805808Y-115404746D01*
X122777762Y-115427763D01*
X122685913Y-115539681D01*
X122617663Y-115667368D01*
X122596870Y-115735913D01*
X122575635Y-115805915D01*
X122561444Y-115950000D01*
X122565000Y-115986105D01*
X122565001Y-127668485D01*
X122409744Y-127732795D01*
X122240226Y-127846063D01*
X122096063Y-127990226D01*
X121982795Y-128159744D01*
X121904774Y-128348102D01*
X121865000Y-128548061D01*
X121865000Y-128751939D01*
X121904774Y-128951898D01*
X121982795Y-129140256D01*
X122096063Y-129309774D01*
X122240226Y-129453937D01*
X122409744Y-129567205D01*
X122598102Y-129645226D01*
X122798061Y-129685000D01*
X122951413Y-129685000D01*
X122954774Y-129701898D01*
X123032795Y-129890256D01*
X123146063Y-130059774D01*
X123290226Y-130203937D01*
X123459744Y-130317205D01*
X123648102Y-130395226D01*
X123848061Y-130435000D01*
X124051939Y-130435000D01*
X124251898Y-130395226D01*
X124440256Y-130317205D01*
X124609774Y-130203937D01*
X124753937Y-130059774D01*
X124867205Y-129890256D01*
X124945226Y-129701898D01*
X124985000Y-129501939D01*
X124985000Y-129298061D01*
X124945226Y-129098102D01*
X124867205Y-128909744D01*
X124753937Y-128740226D01*
X124685000Y-128671289D01*
X124685000Y-116404446D01*
X126919194Y-114170253D01*
X126947239Y-114147237D01*
X127039088Y-114035319D01*
X127107338Y-113907632D01*
X127141782Y-113794085D01*
X127149366Y-113769085D01*
X127154920Y-113712695D01*
X127173102Y-113720226D01*
X127373061Y-113760000D01*
X127576939Y-113760000D01*
X127776898Y-113720226D01*
X127920560Y-113660719D01*
X127932794Y-113690255D01*
X128046062Y-113859773D01*
X128115000Y-113928711D01*
X128115001Y-114369079D01*
X128111518Y-114410401D01*
X128119052Y-114477234D01*
X128125636Y-114544085D01*
X128127150Y-114549077D01*
X128127736Y-114554272D01*
X128148162Y-114618343D01*
X128167664Y-114682633D01*
X128170126Y-114687239D01*
X128171712Y-114692214D01*
X128204228Y-114751039D01*
X128235914Y-114810320D01*
X128239227Y-114814356D01*
X128241753Y-114818927D01*
X128285122Y-114870280D01*
X128327763Y-114922238D01*
X128359817Y-114948544D01*
X131715000Y-118210529D01*
X131715001Y-128498726D01*
X131534130Y-128615000D01*
X130878711Y-128615000D01*
X130809774Y-128546063D01*
X130640256Y-128432795D01*
X130451898Y-128354774D01*
X130251939Y-128315000D01*
X130048061Y-128315000D01*
X129848102Y-128354774D01*
X129659744Y-128432795D01*
X129490226Y-128546063D01*
X129346063Y-128690226D01*
X129232795Y-128859744D01*
X129154774Y-129048102D01*
X129115000Y-129248061D01*
X129115000Y-129351289D01*
X129109774Y-129346063D01*
X128940256Y-129232795D01*
X128751898Y-129154774D01*
X128551939Y-129115000D01*
X128348061Y-129115000D01*
X128148102Y-129154774D01*
X127959744Y-129232795D01*
X127790226Y-129346063D01*
X127646063Y-129490226D01*
X127532795Y-129659744D01*
X127454774Y-129848102D01*
X127415000Y-130048061D01*
X127415000Y-130251939D01*
X127427126Y-130312901D01*
X126578711Y-130312901D01*
X126509774Y-130243964D01*
X126340256Y-130130696D01*
X126151898Y-130052675D01*
X125951939Y-130012901D01*
X125748061Y-130012901D01*
X125548102Y-130052675D01*
X125359744Y-130130696D01*
X125190226Y-130243964D01*
X125046063Y-130388127D01*
X124932795Y-130557645D01*
X124854774Y-130746003D01*
X124815000Y-130945962D01*
X124815000Y-131149840D01*
X124854774Y-131349799D01*
X124932795Y-131538157D01*
X125046063Y-131707675D01*
X125190226Y-131851838D01*
X125359744Y-131965106D01*
X125548102Y-132043127D01*
X125748061Y-132082901D01*
X125951939Y-132082901D01*
X125954336Y-132082424D01*
X126018843Y-132238157D01*
X126132111Y-132407675D01*
X126276274Y-132551838D01*
X126445792Y-132665106D01*
X126634150Y-132743127D01*
X126834109Y-132782901D01*
X126931602Y-132782901D01*
X130838701Y-136690001D01*
X128030502Y-136690001D01*
X124121323Y-132780823D01*
X124098302Y-132752772D01*
X123986384Y-132660923D01*
X123858697Y-132592673D01*
X123720149Y-132550645D01*
X123612169Y-132540010D01*
X123576064Y-132536454D01*
X123539959Y-132540010D01*
X123134792Y-132540010D01*
X123139802Y-132535000D01*
X123201939Y-132535000D01*
X123401898Y-132495226D01*
X123590256Y-132417205D01*
X123759774Y-132303937D01*
X123903937Y-132159774D01*
X124017205Y-131990256D01*
X124095226Y-131801898D01*
X124135000Y-131601939D01*
X124135000Y-131398061D01*
X124095226Y-131198102D01*
X124017205Y-131009744D01*
X123903937Y-130840226D01*
X123759774Y-130696063D01*
X123590256Y-130582795D01*
X123401898Y-130504774D01*
X123201939Y-130465000D01*
X122998061Y-130465000D01*
X122798102Y-130504774D01*
X122609744Y-130582795D01*
X122440226Y-130696063D01*
X122296063Y-130840226D01*
X122182795Y-131009744D01*
X122104774Y-131198102D01*
X122065000Y-131398061D01*
X122065000Y-131460198D01*
X121435199Y-132090000D01*
X114964803Y-132090000D01*
X112485000Y-129610199D01*
X112485000Y-129548061D01*
X112445226Y-129348102D01*
X112367205Y-129159744D01*
X112253937Y-128990226D01*
X112109774Y-128846063D01*
X111940256Y-128732795D01*
X111751898Y-128654774D01*
X111551939Y-128615000D01*
X111348061Y-128615000D01*
X111148102Y-128654774D01*
X110959744Y-128732795D01*
X110790226Y-128846063D01*
X110646063Y-128990226D01*
X110532795Y-129159744D01*
X110454774Y-129348102D01*
X110450000Y-129372103D01*
X110445226Y-129348102D01*
X110367205Y-129159744D01*
X110253937Y-128990226D01*
X110109774Y-128846063D01*
X109940256Y-128732795D01*
X109751898Y-128654774D01*
X109551939Y-128615000D01*
X109348061Y-128615000D01*
X109148102Y-128654774D01*
X108959744Y-128732795D01*
X108790226Y-128846063D01*
X108646063Y-128990226D01*
X108532795Y-129159744D01*
X108454774Y-129348102D01*
X108415000Y-129548061D01*
X108415000Y-129751939D01*
X108454774Y-129951898D01*
X108532795Y-130140256D01*
X108646063Y-130309774D01*
X108790226Y-130453937D01*
X108959744Y-130567205D01*
X109148102Y-130645226D01*
X109348061Y-130685000D01*
X109445554Y-130685000D01*
X112529756Y-133769203D01*
X112552772Y-133797248D01*
X112664690Y-133889097D01*
X112792377Y-133957347D01*
X112930925Y-133999375D01*
X113038905Y-134010010D01*
X113038914Y-134010010D01*
X113075009Y-134013565D01*
X113111104Y-134010010D01*
X122576279Y-134010010D01*
X122496063Y-134090226D01*
X122382795Y-134259744D01*
X122304774Y-134448102D01*
X122265000Y-134648061D01*
X122265000Y-134851939D01*
X122304774Y-135051898D01*
X122382795Y-135240256D01*
X122496063Y-135409774D01*
X122640226Y-135553937D01*
X122809744Y-135667205D01*
X122998102Y-135745226D01*
X123198061Y-135785000D01*
X123401939Y-135785000D01*
X123601898Y-135745226D01*
X123790256Y-135667205D01*
X123906851Y-135589299D01*
X133504479Y-145186928D01*
X133185000Y-145186928D01*
X133060518Y-145199188D01*
X132940820Y-145235498D01*
X132830506Y-145294463D01*
X132733815Y-145373815D01*
X132654463Y-145470506D01*
X132595498Y-145580820D01*
X132559188Y-145700518D01*
X132546928Y-145825000D01*
X132546928Y-147175000D01*
X132559188Y-147299482D01*
X132595498Y-147419180D01*
X132654463Y-147529494D01*
X132733815Y-147626185D01*
X132820697Y-147697487D01*
X132699093Y-147879482D01*
X132600342Y-148117887D01*
X132550000Y-148370976D01*
X132550000Y-148629024D01*
X132600342Y-148882113D01*
X132699093Y-149120518D01*
X132842456Y-149335077D01*
X132847379Y-149340000D01*
X131432621Y-149340000D01*
X131437544Y-149335077D01*
X131580907Y-149120518D01*
X131679658Y-148882113D01*
X131730000Y-148629024D01*
X131730000Y-148370976D01*
X131679658Y-148117887D01*
X131580907Y-147879482D01*
X131459303Y-147697487D01*
X131546185Y-147626185D01*
X131625537Y-147529494D01*
X131684502Y-147419180D01*
X131720812Y-147299482D01*
X131733072Y-147175000D01*
X131733072Y-145825000D01*
X131720812Y-145700518D01*
X131684502Y-145580820D01*
X131625537Y-145470506D01*
X131546185Y-145373815D01*
X131449494Y-145294463D01*
X131339180Y-145235498D01*
X131219482Y-145199188D01*
X131095000Y-145186928D01*
X129745000Y-145186928D01*
X129620518Y-145199188D01*
X129500820Y-145235498D01*
X129390506Y-145294463D01*
X129293815Y-145373815D01*
X129214463Y-145470506D01*
X129155498Y-145580820D01*
X129119188Y-145700518D01*
X129106928Y-145825000D01*
X129106928Y-147175000D01*
X129119188Y-147299482D01*
X129155498Y-147419180D01*
X129214463Y-147529494D01*
X129293815Y-147626185D01*
X129380697Y-147697487D01*
X129259093Y-147879482D01*
X129160342Y-148117887D01*
X129110000Y-148370976D01*
X129110000Y-148629024D01*
X129160342Y-148882113D01*
X129259093Y-149120518D01*
X129402456Y-149335077D01*
X129407379Y-149340000D01*
X127992621Y-149340000D01*
X127997544Y-149335077D01*
X128140907Y-149120518D01*
X128239658Y-148882113D01*
X128290000Y-148629024D01*
X128290000Y-148370976D01*
X128239658Y-148117887D01*
X128140907Y-147879482D01*
X128019303Y-147697487D01*
X128106185Y-147626185D01*
X128185537Y-147529494D01*
X128244502Y-147419180D01*
X128280812Y-147299482D01*
X128293072Y-147175000D01*
X128293072Y-145825000D01*
X128280812Y-145700518D01*
X128244502Y-145580820D01*
X128185537Y-145470506D01*
X128106185Y-145373815D01*
X128009494Y-145294463D01*
X127899180Y-145235498D01*
X127779482Y-145199188D01*
X127655000Y-145186928D01*
X126305000Y-145186928D01*
X126180518Y-145199188D01*
X126060820Y-145235498D01*
X125950506Y-145294463D01*
X125853815Y-145373815D01*
X125774463Y-145470506D01*
X125715498Y-145580820D01*
X125679188Y-145700518D01*
X125666928Y-145825000D01*
X125666928Y-147175000D01*
X125679188Y-147299482D01*
X125715498Y-147419180D01*
X125774463Y-147529494D01*
X125853815Y-147626185D01*
X125940697Y-147697487D01*
X125819093Y-147879482D01*
X125720342Y-148117887D01*
X125670000Y-148370976D01*
X125670000Y-148629024D01*
X125720342Y-148882113D01*
X125819093Y-149120518D01*
X125962456Y-149335077D01*
X125967379Y-149340000D01*
X124552621Y-149340000D01*
X124557544Y-149335077D01*
X124700907Y-149120518D01*
X124799658Y-148882113D01*
X124850000Y-148629024D01*
X124850000Y-148370976D01*
X124799658Y-148117887D01*
X124700907Y-147879482D01*
X124579303Y-147697487D01*
X124666185Y-147626185D01*
X124745537Y-147529494D01*
X124804502Y-147419180D01*
X124840812Y-147299482D01*
X124853072Y-147175000D01*
X124853072Y-145825000D01*
X124840812Y-145700518D01*
X124804502Y-145580820D01*
X124745537Y-145470506D01*
X124666185Y-145373815D01*
X124569494Y-145294463D01*
X124459180Y-145235498D01*
X124339482Y-145199188D01*
X124215000Y-145186928D01*
X122865000Y-145186928D01*
X122740518Y-145199188D01*
X122620820Y-145235498D01*
X122510506Y-145294463D01*
X122413815Y-145373815D01*
X122334463Y-145470506D01*
X122275498Y-145580820D01*
X122239188Y-145700518D01*
X122226928Y-145825000D01*
X122226928Y-147175000D01*
X122239188Y-147299482D01*
X122275498Y-147419180D01*
X122334463Y-147529494D01*
X122413815Y-147626185D01*
X122500697Y-147697487D01*
X122379093Y-147879482D01*
X122280342Y-148117887D01*
X122230000Y-148370976D01*
X122230000Y-148629024D01*
X122280342Y-148882113D01*
X122379093Y-149120518D01*
X122522456Y-149335077D01*
X122527379Y-149340000D01*
X121388521Y-149340000D01*
X121400812Y-149299482D01*
X121413072Y-149175000D01*
X121413072Y-147825000D01*
X121400812Y-147700518D01*
X121364502Y-147580820D01*
X121305537Y-147470506D01*
X121226185Y-147373815D01*
X121132441Y-147296881D01*
X121229473Y-147163629D01*
X121337238Y-146930528D01*
X121367910Y-146829400D01*
X121244224Y-146627000D01*
X120227000Y-146627000D01*
X120227000Y-146647000D01*
X119973000Y-146647000D01*
X119973000Y-146627000D01*
X118955776Y-146627000D01*
X118832090Y-146829400D01*
X118862762Y-146930528D01*
X118970527Y-147163629D01*
X119067559Y-147296881D01*
X118973815Y-147373815D01*
X118894463Y-147470506D01*
X118835498Y-147580820D01*
X118799188Y-147700518D01*
X118786928Y-147825000D01*
X118786928Y-149175000D01*
X118799188Y-149299482D01*
X118811479Y-149340000D01*
X102032279Y-149340000D01*
X101740340Y-149311375D01*
X101490571Y-149235965D01*
X101260206Y-149113477D01*
X101058021Y-148948579D01*
X100891712Y-148747546D01*
X100767622Y-148518046D01*
X100690469Y-148268805D01*
X100660000Y-147978911D01*
X100660000Y-146170600D01*
X118832090Y-146170600D01*
X118955776Y-146373000D01*
X119973000Y-146373000D01*
X119973000Y-145354915D01*
X120227000Y-145354915D01*
X120227000Y-146373000D01*
X121244224Y-146373000D01*
X121367910Y-146170600D01*
X121337238Y-146069472D01*
X121229473Y-145836371D01*
X121078303Y-145628773D01*
X120889537Y-145454656D01*
X120670430Y-145320711D01*
X120429401Y-145232085D01*
X120227000Y-145354915D01*
X119973000Y-145354915D01*
X119770599Y-145232085D01*
X119529570Y-145320711D01*
X119310463Y-145454656D01*
X119121697Y-145628773D01*
X118970527Y-145836371D01*
X118862762Y-146069472D01*
X118832090Y-146170600D01*
X100660000Y-146170600D01*
X100660000Y-124632279D01*
X100669580Y-124534576D01*
X100688580Y-124471644D01*
X100719445Y-124413595D01*
X100760989Y-124362657D01*
X100811644Y-124320752D01*
X100869471Y-124289485D01*
X100932272Y-124270044D01*
X100998687Y-124263064D01*
X101000000Y-124263193D01*
X101129383Y-124250450D01*
X101253793Y-124212710D01*
X101368450Y-124151425D01*
X101468948Y-124068948D01*
X101551425Y-123968450D01*
X101612710Y-123853793D01*
X101650450Y-123729383D01*
X101660000Y-123632419D01*
X101660000Y-102967581D01*
X101650450Y-102870617D01*
X101612710Y-102746207D01*
X101551425Y-102631550D01*
X101468948Y-102531052D01*
X101368449Y-102448575D01*
X101253792Y-102387290D01*
X101129382Y-102349550D01*
X101064455Y-102343155D01*
X101064405Y-102343150D01*
X101063651Y-102343076D01*
X101000000Y-102336807D01*
X100999858Y-102336821D01*
X100934576Y-102330420D01*
X100871643Y-102311420D01*
X100813594Y-102280554D01*
X100762657Y-102239011D01*
X100720752Y-102188356D01*
X100689485Y-102130529D01*
X100670044Y-102067728D01*
X100663050Y-102001178D01*
X100688625Y-101740341D01*
X100764035Y-101490571D01*
X100886522Y-101260208D01*
X101051422Y-101058020D01*
X101252450Y-100891714D01*
X101481954Y-100767622D01*
X101731195Y-100690469D01*
X102021088Y-100660000D01*
X135240001Y-100660000D01*
X135240000Y-109467581D01*
G36*
X137405776Y-138323000D02*
G01*
X138423000Y-138323000D01*
X138423000Y-138303000D01*
X138677000Y-138303000D01*
X138677000Y-138323000D01*
X138697000Y-138323000D01*
X138697000Y-138577000D01*
X138677000Y-138577000D01*
X138677000Y-139595085D01*
X138879401Y-139717915D01*
X139120430Y-139629289D01*
X139339537Y-139495344D01*
X139340001Y-139494916D01*
X139340001Y-147967711D01*
X139311375Y-148259660D01*
X139235965Y-148509429D01*
X139113477Y-148739794D01*
X138948579Y-148941979D01*
X138747546Y-149108288D01*
X138612448Y-149181335D01*
X138613072Y-149175000D01*
X138613072Y-147825000D01*
X138600812Y-147700518D01*
X138564502Y-147580820D01*
X138505537Y-147470506D01*
X138426185Y-147373815D01*
X138332441Y-147296881D01*
X138429473Y-147163629D01*
X138537238Y-146930528D01*
X138567910Y-146829400D01*
X138444224Y-146627000D01*
X137427000Y-146627000D01*
X137427000Y-146647000D01*
X137173000Y-146647000D01*
X137173000Y-146627000D01*
X137153000Y-146627000D01*
X137153000Y-146373000D01*
X137173000Y-146373000D01*
X137173000Y-145354915D01*
X137427000Y-145354915D01*
X137427000Y-146373000D01*
X138444224Y-146373000D01*
X138567910Y-146170600D01*
X138537238Y-146069472D01*
X138429473Y-145836371D01*
X138278303Y-145628773D01*
X138089537Y-145454656D01*
X137870430Y-145320711D01*
X137629401Y-145232085D01*
X137427000Y-145354915D01*
X137173000Y-145354915D01*
X136970599Y-145232085D01*
X136729570Y-145320711D01*
X136510463Y-145454656D01*
X136321697Y-145628773D01*
X136196773Y-145800328D01*
X129175845Y-138779400D01*
X137282090Y-138779400D01*
X137312762Y-138880528D01*
X137420527Y-139113629D01*
X137571697Y-139321227D01*
X137760463Y-139495344D01*
X137979570Y-139629289D01*
X138220599Y-139717915D01*
X138423000Y-139595085D01*
X138423000Y-138577000D01*
X137405776Y-138577000D01*
X137282090Y-138779400D01*
X129175845Y-138779400D01*
X128556445Y-138160001D01*
X137306168Y-138160001D01*
X137405776Y-138323000D01*
G37*
X137405776Y-138323000D02*
X138423000Y-138323000D01*
X138423000Y-138303000D01*
X138677000Y-138303000D01*
X138677000Y-138323000D01*
X138697000Y-138323000D01*
X138697000Y-138577000D01*
X138677000Y-138577000D01*
X138677000Y-139595085D01*
X138879401Y-139717915D01*
X139120430Y-139629289D01*
X139339537Y-139495344D01*
X139340001Y-139494916D01*
X139340001Y-147967711D01*
X139311375Y-148259660D01*
X139235965Y-148509429D01*
X139113477Y-148739794D01*
X138948579Y-148941979D01*
X138747546Y-149108288D01*
X138612448Y-149181335D01*
X138613072Y-149175000D01*
X138613072Y-147825000D01*
X138600812Y-147700518D01*
X138564502Y-147580820D01*
X138505537Y-147470506D01*
X138426185Y-147373815D01*
X138332441Y-147296881D01*
X138429473Y-147163629D01*
X138537238Y-146930528D01*
X138567910Y-146829400D01*
X138444224Y-146627000D01*
X137427000Y-146627000D01*
X137427000Y-146647000D01*
X137173000Y-146647000D01*
X137173000Y-146627000D01*
X137153000Y-146627000D01*
X137153000Y-146373000D01*
X137173000Y-146373000D01*
X137173000Y-145354915D01*
X137427000Y-145354915D01*
X137427000Y-146373000D01*
X138444224Y-146373000D01*
X138567910Y-146170600D01*
X138537238Y-146069472D01*
X138429473Y-145836371D01*
X138278303Y-145628773D01*
X138089537Y-145454656D01*
X137870430Y-145320711D01*
X137629401Y-145232085D01*
X137427000Y-145354915D01*
X137173000Y-145354915D01*
X136970599Y-145232085D01*
X136729570Y-145320711D01*
X136510463Y-145454656D01*
X136321697Y-145628773D01*
X136196773Y-145800328D01*
X129175845Y-138779400D01*
X137282090Y-138779400D01*
X137312762Y-138880528D01*
X137420527Y-139113629D01*
X137571697Y-139321227D01*
X137760463Y-139495344D01*
X137979570Y-139629289D01*
X138220599Y-139717915D01*
X138423000Y-139595085D01*
X138423000Y-138577000D01*
X137405776Y-138577000D01*
X137282090Y-138779400D01*
X129175845Y-138779400D01*
X128556445Y-138160001D01*
X137306168Y-138160001D01*
X137405776Y-138323000D01*
G36*
X139340001Y-131148254D02*
G01*
X139225000Y-131136928D01*
X138276374Y-131136928D01*
X137885000Y-130745554D01*
X137885000Y-130131185D01*
X137929482Y-130160907D01*
X138167887Y-130259658D01*
X138420976Y-130310000D01*
X138679024Y-130310000D01*
X138932113Y-130259658D01*
X139170518Y-130160907D01*
X139340001Y-130047663D01*
X139340001Y-131148254D01*
G37*
X139340001Y-131148254D02*
X139225000Y-131136928D01*
X138276374Y-131136928D01*
X137885000Y-130745554D01*
X137885000Y-130131185D01*
X137929482Y-130160907D01*
X138167887Y-130259658D01*
X138420976Y-130310000D01*
X138679024Y-130310000D01*
X138932113Y-130259658D01*
X139170518Y-130160907D01*
X139340001Y-130047663D01*
X139340001Y-131148254D01*
G36*
X138677000Y-126873000D02*
G01*
X138697000Y-126873000D01*
X138697000Y-127127000D01*
X138677000Y-127127000D01*
X138677000Y-127147000D01*
X138423000Y-127147000D01*
X138423000Y-127127000D01*
X138403000Y-127127000D01*
X138403000Y-126873000D01*
X138423000Y-126873000D01*
X138423000Y-126853000D01*
X138677000Y-126853000D01*
X138677000Y-126873000D01*
G37*
X138677000Y-126873000D02*
X138697000Y-126873000D01*
X138697000Y-127127000D01*
X138677000Y-127127000D01*
X138677000Y-127147000D01*
X138423000Y-127147000D01*
X138423000Y-127127000D01*
X138403000Y-127127000D01*
X138403000Y-126873000D01*
X138423000Y-126873000D01*
X138423000Y-126853000D01*
X138677000Y-126853000D01*
X138677000Y-126873000D01*
G36*
X114927000Y-117173000D02*
G01*
X114947000Y-117173000D01*
X114947000Y-117427000D01*
X114927000Y-117427000D01*
X114927000Y-118923000D01*
X114947000Y-118923000D01*
X114947000Y-119177000D01*
X114927000Y-119177000D01*
X114927000Y-119197000D01*
X114673000Y-119197000D01*
X114673000Y-119177000D01*
X114653000Y-119177000D01*
X114653000Y-118923000D01*
X114673000Y-118923000D01*
X114673000Y-117427000D01*
X114653000Y-117427000D01*
X114653000Y-117173000D01*
X114673000Y-117173000D01*
X114673000Y-117153000D01*
X114927000Y-117153000D01*
X114927000Y-117173000D01*
G37*
X114927000Y-117173000D02*
X114947000Y-117173000D01*
X114947000Y-117427000D01*
X114927000Y-117427000D01*
X114927000Y-118923000D01*
X114947000Y-118923000D01*
X114947000Y-119177000D01*
X114927000Y-119177000D01*
X114927000Y-119197000D01*
X114673000Y-119197000D01*
X114673000Y-119177000D01*
X114653000Y-119177000D01*
X114653000Y-118923000D01*
X114673000Y-118923000D01*
X114673000Y-117427000D01*
X114653000Y-117427000D01*
X114653000Y-117173000D01*
X114673000Y-117173000D01*
X114673000Y-117153000D01*
X114927000Y-117153000D01*
X114927000Y-117173000D01*
G36*
X111886928Y-118926375D02*
G01*
X111886928Y-119010706D01*
X111751898Y-118954774D01*
X111551939Y-118915000D01*
X111348061Y-118915000D01*
X111148102Y-118954774D01*
X110959744Y-119032795D01*
X110790226Y-119146063D01*
X110746289Y-119190000D01*
X110638072Y-119190000D01*
X110638072Y-119050000D01*
X110625812Y-118925518D01*
X110618245Y-118900574D01*
X110624701Y-118879943D01*
X110635000Y-118781750D01*
X110476250Y-118623000D01*
X110471033Y-118623000D01*
X110451185Y-118598815D01*
X110391704Y-118550000D01*
X110451185Y-118501185D01*
X110471033Y-118477000D01*
X110476250Y-118477000D01*
X110635000Y-118318250D01*
X110624701Y-118220057D01*
X110618245Y-118199426D01*
X110625812Y-118174482D01*
X110638072Y-118050000D01*
X110638072Y-117885000D01*
X110845554Y-117885000D01*
X111886928Y-118926375D01*
G37*
X111886928Y-118926375D02*
X111886928Y-119010706D01*
X111751898Y-118954774D01*
X111551939Y-118915000D01*
X111348061Y-118915000D01*
X111148102Y-118954774D01*
X110959744Y-119032795D01*
X110790226Y-119146063D01*
X110746289Y-119190000D01*
X110638072Y-119190000D01*
X110638072Y-119050000D01*
X110625812Y-118925518D01*
X110618245Y-118900574D01*
X110624701Y-118879943D01*
X110635000Y-118781750D01*
X110476250Y-118623000D01*
X110471033Y-118623000D01*
X110451185Y-118598815D01*
X110391704Y-118550000D01*
X110451185Y-118501185D01*
X110471033Y-118477000D01*
X110476250Y-118477000D01*
X110635000Y-118318250D01*
X110624701Y-118220057D01*
X110618245Y-118199426D01*
X110625812Y-118174482D01*
X110638072Y-118050000D01*
X110638072Y-117885000D01*
X110845554Y-117885000D01*
X111886928Y-118926375D01*
G36*
X114355304Y-116187959D02*
G01*
X114275000Y-116186928D01*
X114150518Y-116199188D01*
X114030820Y-116235498D01*
X113920506Y-116294463D01*
X113847839Y-116354099D01*
X113823942Y-116334488D01*
X113672567Y-116253577D01*
X113508316Y-116203752D01*
X113463815Y-116199369D01*
X113220259Y-115955813D01*
X113197238Y-115927762D01*
X113085320Y-115835913D01*
X112957633Y-115767663D01*
X112819085Y-115725635D01*
X112711105Y-115715000D01*
X112675000Y-115711444D01*
X112638895Y-115715000D01*
X110638072Y-115715000D01*
X110638072Y-115550000D01*
X110625812Y-115425518D01*
X110618071Y-115400000D01*
X110625812Y-115374482D01*
X110638072Y-115250000D01*
X110638072Y-114850000D01*
X110625812Y-114725518D01*
X110618071Y-114700000D01*
X110625812Y-114674482D01*
X110638072Y-114550000D01*
X110638072Y-114150000D01*
X110625812Y-114025518D01*
X110618071Y-114000000D01*
X110625812Y-113974482D01*
X110638072Y-113850000D01*
X110638072Y-113450000D01*
X110625812Y-113325518D01*
X110618245Y-113300574D01*
X110624701Y-113279943D01*
X110635000Y-113181750D01*
X110476250Y-113023000D01*
X110471033Y-113023000D01*
X110451185Y-112998815D01*
X110391623Y-112949934D01*
X110447227Y-112905109D01*
X110470709Y-112877000D01*
X110476250Y-112877000D01*
X110584712Y-112768538D01*
X114355304Y-116187959D01*
G37*
X114355304Y-116187959D02*
X114275000Y-116186928D01*
X114150518Y-116199188D01*
X114030820Y-116235498D01*
X113920506Y-116294463D01*
X113847839Y-116354099D01*
X113823942Y-116334488D01*
X113672567Y-116253577D01*
X113508316Y-116203752D01*
X113463815Y-116199369D01*
X113220259Y-115955813D01*
X113197238Y-115927762D01*
X113085320Y-115835913D01*
X112957633Y-115767663D01*
X112819085Y-115725635D01*
X112711105Y-115715000D01*
X112675000Y-115711444D01*
X112638895Y-115715000D01*
X110638072Y-115715000D01*
X110638072Y-115550000D01*
X110625812Y-115425518D01*
X110618071Y-115400000D01*
X110625812Y-115374482D01*
X110638072Y-115250000D01*
X110638072Y-114850000D01*
X110625812Y-114725518D01*
X110618071Y-114700000D01*
X110625812Y-114674482D01*
X110638072Y-114550000D01*
X110638072Y-114150000D01*
X110625812Y-114025518D01*
X110618071Y-114000000D01*
X110625812Y-113974482D01*
X110638072Y-113850000D01*
X110638072Y-113450000D01*
X110625812Y-113325518D01*
X110618245Y-113300574D01*
X110624701Y-113279943D01*
X110635000Y-113181750D01*
X110476250Y-113023000D01*
X110471033Y-113023000D01*
X110451185Y-112998815D01*
X110391623Y-112949934D01*
X110447227Y-112905109D01*
X110470709Y-112877000D01*
X110476250Y-112877000D01*
X110584712Y-112768538D01*
X114355304Y-116187959D01*
G36*
X108627000Y-107326250D02*
G01*
X108650750Y-107350000D01*
X108627000Y-107373750D01*
X108627000Y-108026250D01*
X108650750Y-108050000D01*
X108627000Y-108073750D01*
X108627000Y-108726250D01*
X108650750Y-108750000D01*
X108627000Y-108773750D01*
X108627000Y-108897000D01*
X108373000Y-108897000D01*
X108373000Y-108773750D01*
X108349250Y-108750000D01*
X108373000Y-108726250D01*
X108373000Y-108073750D01*
X108349250Y-108050000D01*
X108373000Y-108026250D01*
X108373000Y-107373750D01*
X108349250Y-107350000D01*
X108373000Y-107326250D01*
X108373000Y-107203000D01*
X108627000Y-107203000D01*
X108627000Y-107326250D01*
G37*
X108627000Y-107326250D02*
X108650750Y-107350000D01*
X108627000Y-107373750D01*
X108627000Y-108026250D01*
X108650750Y-108050000D01*
X108627000Y-108073750D01*
X108627000Y-108726250D01*
X108650750Y-108750000D01*
X108627000Y-108773750D01*
X108627000Y-108897000D01*
X108373000Y-108897000D01*
X108373000Y-108773750D01*
X108349250Y-108750000D01*
X108373000Y-108726250D01*
X108373000Y-108073750D01*
X108349250Y-108050000D01*
X108373000Y-108026250D01*
X108373000Y-107373750D01*
X108349250Y-107350000D01*
X108373000Y-107326250D01*
X108373000Y-107203000D01*
X108627000Y-107203000D01*
X108627000Y-107326250D01*
%TD*%
M02*
