M48
; DRILL file {KiCad (5.1.6-0-10_14)} date Monday, November 30, 2020 at 05:01:32 PM
; FORMAT={-:-/ absolute / inch / decimal}
; #@! TF.CreationDate,2020-11-30T17:01:32+08:00
; #@! TF.GenerationSoftware,Kicad,Pcbnew,(5.1.6-0-10_14)
; #@! TF.FileFunction,Plated,1,2,PTH
FMAT,2
INCH
T1C0.0157
T2C0.0236
T3C0.0315
%
G90
G05
T1
X4.3091Y-5.1043
X4.3878Y-4.7224
X4.3878Y-5.1043
X4.4291Y-5.0118
X4.5197Y-4.687
X4.5453Y-5.1043
X4.6831Y-4.9508
X4.6949Y-5.1161
X4.7096Y-4.7008
X4.7114Y-5.0281
X4.7114Y-4.3571
X4.7126Y-4.7874
X4.7147Y-5.0702
X4.7165Y-4.5709
X4.7224Y-4.9823
X4.7736Y-4.8268
X4.8091Y-4.1555
X4.8386Y-5.065
X4.8465Y-5.1772
X4.8504Y-4.2953
X4.8524Y-4.1555
X4.8543Y-5.3051
X4.8799Y-5.0945
X4.9055Y-4.2913
X4.9075Y-4.8812
X4.9498Y-4.3681
X4.9498Y-4.438
X4.9547Y-5.1594
X4.9921Y-4.8543
X4.9975Y-5.1869
X5.0187Y-4.438
X5.0571Y-5.124
X5.0728Y-4.4567
X5.0886Y-5.185
X5.1122Y-4.4803
X5.124Y-5.0925
X5.1673Y-4.6988
X5.1693Y-4.872
X5.2953Y-5.1929
X5.3228Y-4.9587
X5.3622Y-4.9587
X5.4872Y-5.1496
T3
X5.4547Y-4.4705
X5.4547Y-4.5492
X5.4547Y-4.628
X5.4547Y-4.7067
X5.4547Y-4.8425
X5.4547Y-4.9213
X5.4547Y-5.0787
X5.4055Y-5.7677
X5.4055Y-5.8465
X5.4547Y-5.2146
X5.4547Y-5.2933
X5.4547Y-5.372
X5.4547Y-5.4508
X5.2701Y-5.7677
X5.2701Y-5.8465
X5.1346Y-5.7677
X5.1346Y-5.8465
X4.8638Y-5.7677
X4.8638Y-5.8465
X4.7283Y-5.7677
X4.7283Y-5.8465
X4.9992Y-5.7677
X4.9992Y-5.8465
X5.4547Y-5.0
T2
G00X4.6685Y-4.0581
M15
G01X4.6685Y-4.0344
M16
G05
G00X4.6685Y-4.2325
M15
G01X4.6685Y-4.1892
M16
G05
G00X5.0087Y-4.0581
M15
G01X5.0087Y-4.0344
M16
G05
G00X5.0087Y-4.2325
M15
G01X5.0087Y-4.1892
M16
G05
T0
M30
