%TF.GenerationSoftware,KiCad,Pcbnew,(5.1.6-0-10_14)*%
%TF.CreationDate,2020-11-30T17:01:27+08:00*%
%TF.ProjectId,Quadrotor,51756164-726f-4746-9f72-2e6b69636164,rev?*%
%TF.SameCoordinates,Original*%
%TF.FileFunction,Soldermask,Bot*%
%TF.FilePolarity,Negative*%
%FSLAX46Y46*%
G04 Gerber Fmt 4.6, Leading zero omitted, Abs format (unit mm)*
G04 Created by KiCad (PCBNEW (5.1.6-0-10_14)) date 2020-11-30 17:01:27*
%MOMM*%
%LPD*%
G01*
G04 APERTURE LIST*
%ADD10R,0.100000X0.100000*%
%ADD11R,3.100000X0.500000*%
%ADD12O,1.450000X1.450000*%
%ADD13R,1.450000X1.450000*%
%ADD14C,0.750000*%
%ADD15O,1.100000X1.700000*%
%ADD16O,1.100000X2.200000*%
G04 APERTURE END LIST*
D10*
%TO.C,J13*%
X107200000Y-125050000D03*
D11*
X108500000Y-103150000D03*
X108500000Y-103850000D03*
X108500000Y-104550000D03*
X108500000Y-105250000D03*
X108500000Y-105950000D03*
X108500000Y-106650000D03*
X108500000Y-107350000D03*
X108500000Y-108050000D03*
X108500000Y-108750000D03*
X108500000Y-109450000D03*
X108500000Y-110150000D03*
X108500000Y-110850000D03*
X108500000Y-111550000D03*
X108500000Y-112250000D03*
X108500000Y-112950000D03*
X108500000Y-113650000D03*
X108500000Y-114350000D03*
X108500000Y-115050000D03*
X108500000Y-115750000D03*
X108500000Y-116450000D03*
X108500000Y-117150000D03*
X108500000Y-117850000D03*
X108500000Y-118550000D03*
X108500000Y-119250000D03*
X108500000Y-119950000D03*
X108500000Y-120650000D03*
X108500000Y-121350000D03*
X108500000Y-122050000D03*
X108500000Y-122750000D03*
X108500000Y-123450000D03*
%TD*%
D12*
%TO.C,J4*%
X120100000Y-146500000D03*
D13*
X120100000Y-148500000D03*
%TD*%
%TO.C,R14*%
G36*
G01*
X113625000Y-117037500D02*
X113625000Y-117562500D01*
G75*
G02*
X113362500Y-117825000I-262500J0D01*
G01*
X112737500Y-117825000D01*
G75*
G02*
X112475000Y-117562500I0J262500D01*
G01*
X112475000Y-117037500D01*
G75*
G02*
X112737500Y-116775000I262500J0D01*
G01*
X113362500Y-116775000D01*
G75*
G02*
X113625000Y-117037500I0J-262500D01*
G01*
G37*
G36*
G01*
X115375000Y-117037500D02*
X115375000Y-117562500D01*
G75*
G02*
X115112500Y-117825000I-262500J0D01*
G01*
X114487500Y-117825000D01*
G75*
G02*
X114225000Y-117562500I0J262500D01*
G01*
X114225000Y-117037500D01*
G75*
G02*
X114487500Y-116775000I262500J0D01*
G01*
X115112500Y-116775000D01*
G75*
G02*
X115375000Y-117037500I0J-262500D01*
G01*
G37*
%TD*%
%TO.C,R13*%
G36*
G01*
X113625000Y-118787500D02*
X113625000Y-119312500D01*
G75*
G02*
X113362500Y-119575000I-262500J0D01*
G01*
X112737500Y-119575000D01*
G75*
G02*
X112475000Y-119312500I0J262500D01*
G01*
X112475000Y-118787500D01*
G75*
G02*
X112737500Y-118525000I262500J0D01*
G01*
X113362500Y-118525000D01*
G75*
G02*
X113625000Y-118787500I0J-262500D01*
G01*
G37*
G36*
G01*
X115375000Y-118787500D02*
X115375000Y-119312500D01*
G75*
G02*
X115112500Y-119575000I-262500J0D01*
G01*
X114487500Y-119575000D01*
G75*
G02*
X114225000Y-119312500I0J262500D01*
G01*
X114225000Y-118787500D01*
G75*
G02*
X114487500Y-118525000I262500J0D01*
G01*
X115112500Y-118525000D01*
G75*
G02*
X115375000Y-118787500I0J-262500D01*
G01*
G37*
%TD*%
%TO.C,R12*%
G36*
G01*
X113625000Y-107087500D02*
X113625000Y-107612500D01*
G75*
G02*
X113362500Y-107875000I-262500J0D01*
G01*
X112737500Y-107875000D01*
G75*
G02*
X112475000Y-107612500I0J262500D01*
G01*
X112475000Y-107087500D01*
G75*
G02*
X112737500Y-106825000I262500J0D01*
G01*
X113362500Y-106825000D01*
G75*
G02*
X113625000Y-107087500I0J-262500D01*
G01*
G37*
G36*
G01*
X115375000Y-107087500D02*
X115375000Y-107612500D01*
G75*
G02*
X115112500Y-107875000I-262500J0D01*
G01*
X114487500Y-107875000D01*
G75*
G02*
X114225000Y-107612500I0J262500D01*
G01*
X114225000Y-107087500D01*
G75*
G02*
X114487500Y-106825000I262500J0D01*
G01*
X115112500Y-106825000D01*
G75*
G02*
X115375000Y-107087500I0J-262500D01*
G01*
G37*
%TD*%
%TO.C,R11*%
G36*
G01*
X114225000Y-111112500D02*
X114225000Y-110587500D01*
G75*
G02*
X114487500Y-110325000I262500J0D01*
G01*
X115112500Y-110325000D01*
G75*
G02*
X115375000Y-110587500I0J-262500D01*
G01*
X115375000Y-111112500D01*
G75*
G02*
X115112500Y-111375000I-262500J0D01*
G01*
X114487500Y-111375000D01*
G75*
G02*
X114225000Y-111112500I0J262500D01*
G01*
G37*
G36*
G01*
X112475000Y-111112500D02*
X112475000Y-110587500D01*
G75*
G02*
X112737500Y-110325000I262500J0D01*
G01*
X113362500Y-110325000D01*
G75*
G02*
X113625000Y-110587500I0J-262500D01*
G01*
X113625000Y-111112500D01*
G75*
G02*
X113362500Y-111375000I-262500J0D01*
G01*
X112737500Y-111375000D01*
G75*
G02*
X112475000Y-111112500I0J262500D01*
G01*
G37*
%TD*%
D12*
%TO.C,J10*%
X138550000Y-138450000D03*
X138550000Y-136450000D03*
X138550000Y-134450000D03*
D13*
X138550000Y-132450000D03*
%TD*%
D12*
%TO.C,J9*%
X138550000Y-113550000D03*
X138550000Y-115550000D03*
X138550000Y-117550000D03*
D13*
X138550000Y-119550000D03*
%TD*%
D12*
%TO.C,J8*%
X138550000Y-129000000D03*
X138550000Y-127000000D03*
X138550000Y-125000000D03*
D13*
X138550000Y-123000000D03*
%TD*%
D12*
%TO.C,J7*%
X137300000Y-146500000D03*
D13*
X137300000Y-148500000D03*
%TD*%
D12*
%TO.C,J6*%
X133860000Y-148500000D03*
D13*
X133860000Y-146500000D03*
%TD*%
D12*
%TO.C,J5*%
X126980000Y-148500000D03*
D13*
X126980000Y-146500000D03*
%TD*%
D12*
%TO.C,J3*%
X130420000Y-148500000D03*
D13*
X130420000Y-146500000D03*
%TD*%
D12*
%TO.C,J2*%
X123540000Y-148500000D03*
D13*
X123540000Y-146500000D03*
%TD*%
D14*
%TO.C,J1*%
X125790000Y-106455000D03*
X120010000Y-106455000D03*
D15*
X118580000Y-102775000D03*
X127220000Y-102775000D03*
D16*
X118580000Y-106955000D03*
X127220000Y-106955000D03*
%TD*%
%TO.C,C29*%
G36*
G01*
X113625000Y-104987500D02*
X113625000Y-105512500D01*
G75*
G02*
X113362500Y-105775000I-262500J0D01*
G01*
X112737500Y-105775000D01*
G75*
G02*
X112475000Y-105512500I0J262500D01*
G01*
X112475000Y-104987500D01*
G75*
G02*
X112737500Y-104725000I262500J0D01*
G01*
X113362500Y-104725000D01*
G75*
G02*
X113625000Y-104987500I0J-262500D01*
G01*
G37*
G36*
G01*
X115375000Y-104987500D02*
X115375000Y-105512500D01*
G75*
G02*
X115112500Y-105775000I-262500J0D01*
G01*
X114487500Y-105775000D01*
G75*
G02*
X114225000Y-105512500I0J262500D01*
G01*
X114225000Y-104987500D01*
G75*
G02*
X114487500Y-104725000I262500J0D01*
G01*
X115112500Y-104725000D01*
G75*
G02*
X115375000Y-104987500I0J-262500D01*
G01*
G37*
%TD*%
%TO.C,C28*%
G36*
G01*
X113625000Y-103287500D02*
X113625000Y-103812500D01*
G75*
G02*
X113362500Y-104075000I-262500J0D01*
G01*
X112737500Y-104075000D01*
G75*
G02*
X112475000Y-103812500I0J262500D01*
G01*
X112475000Y-103287500D01*
G75*
G02*
X112737500Y-103025000I262500J0D01*
G01*
X113362500Y-103025000D01*
G75*
G02*
X113625000Y-103287500I0J-262500D01*
G01*
G37*
G36*
G01*
X115375000Y-103287500D02*
X115375000Y-103812500D01*
G75*
G02*
X115112500Y-104075000I-262500J0D01*
G01*
X114487500Y-104075000D01*
G75*
G02*
X114225000Y-103812500I0J262500D01*
G01*
X114225000Y-103287500D01*
G75*
G02*
X114487500Y-103025000I262500J0D01*
G01*
X115112500Y-103025000D01*
G75*
G02*
X115375000Y-103287500I0J-262500D01*
G01*
G37*
%TD*%
%TO.C,C27*%
G36*
G01*
X114225000Y-121462500D02*
X114225000Y-120937500D01*
G75*
G02*
X114487500Y-120675000I262500J0D01*
G01*
X115112500Y-120675000D01*
G75*
G02*
X115375000Y-120937500I0J-262500D01*
G01*
X115375000Y-121462500D01*
G75*
G02*
X115112500Y-121725000I-262500J0D01*
G01*
X114487500Y-121725000D01*
G75*
G02*
X114225000Y-121462500I0J262500D01*
G01*
G37*
G36*
G01*
X112475000Y-121462500D02*
X112475000Y-120937500D01*
G75*
G02*
X112737500Y-120675000I262500J0D01*
G01*
X113362500Y-120675000D01*
G75*
G02*
X113625000Y-120937500I0J-262500D01*
G01*
X113625000Y-121462500D01*
G75*
G02*
X113362500Y-121725000I-262500J0D01*
G01*
X112737500Y-121725000D01*
G75*
G02*
X112475000Y-121462500I0J262500D01*
G01*
G37*
%TD*%
%TO.C,C26*%
G36*
G01*
X113625000Y-123087500D02*
X113625000Y-123612500D01*
G75*
G02*
X113362500Y-123875000I-262500J0D01*
G01*
X112737500Y-123875000D01*
G75*
G02*
X112475000Y-123612500I0J262500D01*
G01*
X112475000Y-123087500D01*
G75*
G02*
X112737500Y-122825000I262500J0D01*
G01*
X113362500Y-122825000D01*
G75*
G02*
X113625000Y-123087500I0J-262500D01*
G01*
G37*
G36*
G01*
X115375000Y-123087500D02*
X115375000Y-123612500D01*
G75*
G02*
X115112500Y-123875000I-262500J0D01*
G01*
X114487500Y-123875000D01*
G75*
G02*
X114225000Y-123612500I0J262500D01*
G01*
X114225000Y-123087500D01*
G75*
G02*
X114487500Y-122825000I262500J0D01*
G01*
X115112500Y-122825000D01*
G75*
G02*
X115375000Y-123087500I0J-262500D01*
G01*
G37*
%TD*%
M02*
